<svg width="33" height="33" viewBox="0 0 33 33" fill="none" xmlns="http://www.w3.org/2000/svg">
<path d="M16.2015 32.403C25.1493 32.403 32.403 25.1493 32.403 16.2015C32.403 7.25365 25.1493 0 16.2015 0C7.25365 0 0 7.25365 0 16.2015C0 25.1493 7.25365 32.403 16.2015 32.403Z" fill="#ECF1E8"/>
<path fill-rule="evenodd" clip-rule="evenodd" d="M16.426 9.1934C16.3328 9.07158 16.1882 9 16.0349 9C15.8817 9 15.7371 9.07158 15.6439 9.1934C15.6439 9.1934 13.3888 12.1559 12.0355 14.8052C11.4205 16.0083 11 17.1566 11 17.9648C11 20.7437 13.2563 23 16.0352 23C18.8142 23 21.0705 20.7437 21.0705 17.9648C21.0705 17.1566 20.65 16.0083 20.0349 14.8052C18.6817 12.1562 16.4265 9.1934 16.4265 9.1934H16.426ZM16.5262 17.1053V15.6316C16.5262 15.3604 16.3061 15.1404 16.0349 15.1404C15.7638 15.1404 15.5437 15.3604 15.5437 15.6316V17.1053H14.07C13.7989 17.1053 13.5788 17.3253 13.5788 17.5965C13.5788 17.8676 13.7989 18.0877 14.07 18.0877H15.5437V19.5614C15.5437 19.8326 15.7638 20.0526 16.0349 20.0526C16.3061 20.0526 16.5262 19.8326 16.5262 19.5614V18.0877H17.9999C18.271 18.0877 18.4911 17.8676 18.4911 17.5965C18.4911 17.3253 18.271 17.1053 17.9999 17.1053H16.5262Z" fill="#91AD70"/>
</svg>
