<svg width="223" height="526" viewBox="0 0 223 526" fill="none" xmlns="http://www.w3.org/2000/svg">
<path d="M197.681 305.965C197.536 306.681 197.391 307.398 197.231 308.198H194.786C193.26 306.862 192.624 305.056 191.949 303.282C191.68 302.573 191.458 301.842 191.237 301.118C189.874 296.706 188.258 292.351 187.48 287.791C187.066 285.369 186.427 282.984 186.459 280.461C186.51 276.52 186.179 272.574 186.201 268.633C186.212 266.363 185.653 264.246 185.024 262.135C184.523 260.449 183.753 258.845 183.124 257.195C182.739 256.185 182.43 255.15 182.038 254.144C180.334 249.778 178.634 245.41 176.886 241.063C175.186 236.835 173.33 232.669 171.735 228.405C170.587 225.328 169.744 222.136 168.789 218.991C168.186 217 167.604 215.005 167.07 212.997C166.892 212.327 166.914 211.607 166.809 210.919C166.035 205.884 165.305 200.795 165.944 195.742C166.304 192.897 166.471 190.078 166.609 187.233C166.718 184.963 165.94 182.871 165.653 180.685C165.246 177.543 164.683 174.42 164.193 171.285C163.79 168.715 163.575 166.098 162.95 163.586C162.442 161.545 162.18 159.489 161.861 157.429C161.799 157.038 161.512 156.68 161.17 155.985C160.64 157.618 160.157 158.892 159.822 160.202C159.288 162.29 158.921 164.419 158.369 166.5C157.788 168.693 157.021 170.836 156.426 173.026C155.844 175.165 155.43 177.351 154.838 179.483C153.999 182.513 153.864 185.586 153.886 188.709C153.897 190.422 154.544 191.927 154.893 193.52C155.565 196.593 156.611 199.597 157.12 202.688C157.559 205.363 158.377 208.027 158.111 210.792C158.017 211.799 157.872 212.805 157.683 213.797C157.283 215.885 157.243 217.941 157.792 220.022C158.097 221.18 158.217 222.389 158.395 223.576C158.856 226.649 159.281 229.733 159.768 232.803C159.997 234.243 160.371 235.662 160.622 237.099C161.127 239.962 161.359 242.894 162.126 245.681C163.266 249.836 162.703 254.18 163.822 258.313C163.855 258.433 163.855 258.567 163.859 258.693C164.004 261.745 164.255 264.792 164.269 267.844C164.32 277.786 164.316 287.733 164.258 297.676C164.236 301.237 164.396 304.871 163.739 308.335C163.15 311.43 163.55 314.557 162.827 317.601C162.696 318.148 162.805 318.749 162.732 319.313C162.602 320.312 162.413 321.304 162.257 322.296C162.177 322.795 162.075 323.298 162.053 323.802C161.955 325.962 161.679 328.084 161.058 330.176C160.72 331.316 160.738 332.561 160.585 333.759C160.146 337.154 159.717 340.546 159.252 343.937C158.976 345.946 158.605 347.944 158.347 349.953C157.991 352.718 157.69 355.491 157.381 358.26C157.043 361.286 156.596 364.308 156.433 367.345C156.255 370.635 155.924 373.943 156.774 377.226C157.087 378.442 157.011 379.752 157.203 381.005C157.635 383.821 157.962 386.662 158.624 389.428C159.775 394.256 159.539 399.157 159.83 404.04C160.022 407.294 160.019 410.519 159.75 413.758C159.568 415.966 159.481 418.174 158.7 420.299C158.402 421.113 158.529 422.069 158.333 422.934C157.697 425.695 156.963 428.435 156.342 431.201C155.732 433.912 155.263 436.655 154.635 439.363C154.122 441.574 153.428 443.742 152.898 445.95C152.349 448.227 151.939 450.536 151.405 452.817C150.689 455.879 149.872 458.923 149.178 461.988C148.633 464.388 148.241 466.824 147.725 469.231C147.183 471.761 146.508 474.262 146.021 476.8C145.712 478.418 145.53 480.075 145.483 481.722C145.4 484.589 145.414 487.459 145.48 490.326C145.541 493.055 145.658 495.788 145.883 498.51C145.952 499.346 146.373 500.196 146.798 500.946C148.764 504.424 150.914 507.797 153.748 510.646C154.994 511.898 156.524 512.865 157.806 514.081C159.049 515.257 160.269 516.502 161.272 517.881C162.217 519.184 162.743 520.712 161.842 522.362C161.323 522.706 160.803 523.065 160.269 523.394C159.946 523.593 159.579 523.922 159.259 523.893C156.527 523.651 154.082 525.008 151.438 525.229C149.657 525.378 148.034 525.008 146.689 524.045C145.494 524.704 144.506 525.584 143.398 525.779C141.789 526.062 140.088 525.852 138.188 525.852C136.561 524.784 134.722 523.662 132.982 522.409C131.889 521.62 131.05 520.596 130.799 519.159C130.672 518.439 130.247 517.773 129.76 517.23C128.63 516.318 127.5 515.409 126.701 514.761C125.266 511.905 125.251 509.39 126.018 506.777C126.298 505.825 126.243 504.753 126.225 503.74C126.163 500.75 125.923 497.76 125.992 494.774C126.036 492.834 126.131 490.883 126.966 488.994C127.536 487.705 127.576 486.174 127.794 484.741C127.994 483.423 128.114 482.095 128.263 480.774C128.35 480.017 128.492 479.261 128.496 478.501C128.517 473.719 128.528 468.938 128.485 464.157C128.477 463.15 128.238 462.148 128.092 461.141C128.027 460.704 127.878 460.273 127.845 459.835C127.671 457.489 127.584 455.137 127.348 452.798C127.18 451.162 126.803 449.548 126.556 447.919C126.032 444.474 125.604 441.013 125.008 437.578C124.536 434.849 123.849 432.156 123.3 429.438C123.086 428.381 122.992 427.302 122.832 426.235C122.414 423.419 122.192 420.552 121.52 417.797C120.281 412.708 120.412 407.565 120.543 402.418C120.594 400.474 121.117 398.545 121.422 396.609C121.48 396.232 121.571 395.856 121.589 395.479C121.753 391.476 121.909 387.469 122.062 383.466C122.073 383.151 122.062 382.833 122.062 382.536C122.316 382.478 122.494 382.442 122.723 382.391C122.723 382.083 122.723 381.769 122.723 381.45C122.726 378.073 122.774 374.692 122.723 371.315C122.694 369.411 122.508 367.508 122.385 365.604C122.283 364.083 122.196 362.56 122.047 361.047C121.629 356.815 121.927 352.526 121.004 348.328C120.692 346.912 120.71 345.425 120.565 343.97C120.14 339.738 119.744 335.504 119.268 331.276C119.064 329.455 118.665 327.66 118.392 325.847C117.906 322.596 117.466 319.342 116.968 316.096C116.758 314.724 116.405 313.374 116.184 312.002C115.66 308.759 115.192 305.508 114.669 302.265C114.465 301.013 114.153 299.779 113.938 298.526C113.542 296.213 113.179 293.893 112.808 291.577C112.685 290.806 112.554 290.049 111.519 289.713C111.228 289.843 110.839 290.017 110.436 290.198C110.356 290.484 110.262 290.723 110.229 290.969C109.666 294.863 109.263 298.791 108.496 302.642C108.049 304.886 107.748 307.134 107.392 309.385C106.945 312.183 106.244 314.937 105.71 317.724C105.506 318.781 105.481 319.871 105.339 320.942C104.903 324.2 104.438 327.45 103.999 330.708C103.668 333.158 103.345 335.609 103.054 338.066C102.713 340.962 102.418 343.865 102.084 346.764C101.79 349.348 101.474 351.929 101.165 354.513C101.121 354.893 101.041 355.27 101.02 355.65C100.518 365.578 100.286 375.521 100.667 385.45C100.787 388.584 100.787 391.773 101.554 394.922C102.222 397.673 102.113 400.605 102.509 403.435C102.785 405.411 102.822 407.33 102.509 409.31C102.117 411.818 102.059 414.373 101.677 416.882C101.201 420.005 100.533 423.1 99.9697 426.213C99.7771 427.273 99.6718 428.352 99.5047 429.416C99.0832 432.098 98.6763 434.784 98.2113 437.459C97.6591 440.64 97.027 443.807 96.482 446.993C96.2459 448.368 96.1006 449.762 95.9625 451.152C95.701 453.736 95.1451 456.273 95.0979 458.905C95.018 463.284 94.4839 467.66 94.473 472.04C94.4621 475.971 95.0652 479.902 95.0834 483.832C95.0979 486.533 96.1587 488.878 96.7436 491.39C97.1905 493.319 96.9434 495.422 96.9325 497.445C96.9216 499.603 96.7255 501.767 96.809 503.921C96.8889 506.009 97.3249 508.087 97.4193 510.175C97.5356 512.8 96.8199 515.091 94.226 516.39C93.83 516.589 93.4849 516.882 93.0634 517.168C92.6275 518.167 92.1988 519.217 91.7084 520.238C91.465 520.748 91.2107 521.345 90.7783 521.657C88.7802 523.097 87.011 525.005 84.6168 525.7C83.0147 526.166 81.2019 525.928 79.5925 526C78.4808 525.309 77.5144 524.704 76.4609 524.049C76.1666 524.179 75.8433 524.371 75.4982 524.473C74.5318 524.751 73.5582 525.2 72.5845 525.207C70.6881 525.218 68.8026 524.921 67.0043 524.234C66.6483 524.096 66.2414 523.922 65.8927 523.977C64.1161 524.266 62.7029 523.499 61.1516 522.352C60.2725 521.36 60.3778 520.068 61.1444 518.841C62.3905 516.839 63.8073 514.971 65.7655 513.56C69.3694 510.964 72.1413 507.616 74.4482 503.863C74.7461 503.378 75.0949 502.922 75.4146 502.448C76.7261 500.49 77.42 498.517 76.8787 496.005C76.5372 494.423 77.0857 492.61 77.4127 490.934C78.0158 487.828 78.0049 484.741 77.5508 481.628C77.2492 479.554 77.0676 477.458 76.6861 475.399C76.2175 472.847 75.5962 470.328 75.0549 467.791C74.9241 467.172 74.866 466.535 74.728 465.916C73.827 461.912 72.9224 457.909 71.9996 453.91C71.2585 450.699 70.492 447.499 69.7327 444.292C68.9625 441.035 68.2613 437.763 67.3931 434.531C66.4885 431.179 65.6674 427.82 65.1152 424.385C64.6938 421.764 63.9708 419.195 63.4477 416.592C63.2079 415.412 62.9863 414.2 62.9899 413.002C63.0045 408.93 63.1243 404.858 63.2043 400.786C63.2079 400.532 63.2624 400.275 63.2515 400.022C63.0953 395.794 64.0435 391.675 64.5485 387.52C64.8754 384.838 65.6565 382.214 66.2087 379.561C66.3104 379.068 66.3213 378.547 66.3213 378.04C66.325 373.259 66.3322 368.478 66.3032 363.7C66.2995 363.008 66.1252 362.317 66.0016 361.633C65.9108 361.134 65.711 360.649 65.671 360.145C65.4857 357.8 65.3986 355.447 65.1661 353.109C64.9844 351.281 64.6247 349.475 64.3777 347.654C63.8582 343.814 63.3859 339.97 62.8446 336.137C62.6048 334.454 62.1798 332.8 61.9473 331.117C61.4459 327.479 61.0027 323.834 60.5559 320.193C60.287 317.989 60.0218 315.784 59.8256 313.573C59.6403 311.484 59.5641 309.389 59.4151 307.297C59.3279 306.03 59.1971 304.763 59.0881 303.5C58.9683 302.11 58.7684 300.72 58.7394 299.326C58.5868 291.877 58.4051 284.428 58.3761 276.976C58.3579 272.715 58.5141 268.444 58.7721 264.191C58.9828 260.644 59.5786 257.122 59.7748 253.575C59.9455 250.466 60.5631 247.433 61.0209 244.378C61.4532 241.508 62.1798 238.684 62.7393 235.832C62.9354 234.837 62.9972 233.816 63.1461 232.81C63.5857 229.86 64.0289 226.91 64.494 223.967C64.701 222.657 64.9336 221.354 65.2133 220.058C66.0053 216.381 64.9662 212.722 65.1552 209.044C65.2896 206.438 65.4131 203.875 66.2051 201.342C66.9389 198.996 67.1896 196.491 67.9888 194.175C69.0351 191.145 69.1369 188.072 69.0606 184.952C69.0024 182.527 68.3558 180.207 67.7309 177.883C66.9934 175.136 66.2305 172.396 65.5221 169.642C64.6066 166.095 63.7565 162.529 62.8301 158.982C62.5976 158.088 62.187 157.238 61.7547 156.09C60.7484 158.53 60.6394 160.846 60.2579 163.108C59.7021 166.417 59.0772 169.714 58.5214 173.026C58.278 174.467 58.1617 175.925 57.9329 177.366C57.4933 180.113 57.1445 182.886 56.5051 185.589C56.0982 187.309 56.0183 188.999 56.1673 190.704C56.3089 192.275 56.8393 193.82 56.9265 195.391C57.0791 198.117 57.0428 200.853 57.0355 203.586C57.0355 204.469 56.9047 205.359 56.7849 206.239C56.6323 207.361 56.4288 208.476 56.2617 209.598C56.0728 210.85 55.9929 212.124 55.6986 213.351C54.9611 216.417 54.2854 219.515 53.2936 222.505C52.1419 225.973 50.6706 229.335 49.3591 232.748C48.4763 235.047 47.648 237.371 46.747 239.662C45.8206 242.022 44.8216 244.353 43.877 246.705C42.867 249.225 41.8752 251.755 40.8907 254.285C39.9026 256.818 38.9144 259.348 37.9589 261.893C37.7373 262.479 37.6174 263.109 37.4866 263.728C36.9235 266.457 36.3495 269.172 36.484 272.006C36.6147 274.804 36.5239 277.616 36.484 280.418C36.4549 282.771 36.1533 285.08 35.5031 287.364C34.8964 289.492 34.6094 291.707 34.068 293.857C33.683 295.388 33.1271 296.876 32.6258 298.374C32.0082 300.231 31.4087 302.092 30.7257 303.923C30.3079 305.042 29.803 306.135 29.2544 307.199C28.6586 308.35 27.5978 308.476 26.1773 308.216C25.8649 307.713 25.458 307.054 25.091 306.464C24.4153 307.789 23.6633 309.179 22.9876 310.601C22.2864 312.082 21.2219 313.07 19.3728 313.363C19.0494 313.131 18.5953 312.809 18.203 312.53C17.6471 311.202 18.0104 310.076 18.5445 308.954C18.8133 308.39 19.1185 307.821 19.2638 307.217C19.6961 305.451 20.0558 303.666 20.4445 301.889C20.2919 301.842 20.1393 301.791 19.9867 301.744C19.3001 303.326 18.6862 304.944 17.9123 306.486C16.8334 308.632 15.6817 310.75 14.4647 312.82C14.0287 313.562 13.2985 314.134 12.7499 314.735H10.5738C9.23686 313.493 8.8227 312.291 9.77817 310.623C10.5883 309.208 11.1006 307.611 11.6455 306.059C12.4448 303.793 13.1677 301.505 13.8907 299.214C13.9742 298.953 13.8434 298.628 13.7599 297.857C11.5002 301.998 9.4621 305.744 7.41312 309.486C6.49398 311.166 5.67657 312.165 3.35148 311.51C2.95186 310.898 2.41056 310.076 1.78932 309.135C5.1716 302.291 7.50394 295.182 8.85903 287.773C8.73914 287.711 8.62289 287.65 8.503 287.588C7.81637 288.656 7.18787 289.763 6.43585 290.781C5.18249 292.482 3.75111 293.922 0.92468 293.166C0.768463 293.014 0.365209 292.616 0.0418764 292.304C0.0418764 291.62 -0.0634835 291.15 0.0600367 290.752C0.590447 289.065 1.16809 287.393 1.77842 285.731C2.01457 285.094 2.33062 284.468 2.71208 283.903C3.88189 282.159 4.78287 280.309 5.37867 278.282C5.65478 277.334 6.13795 276.346 6.80278 275.633C9.89079 272.306 13.2767 269.349 17.7343 267.919C19.5508 264.908 20.1938 261.556 20.6952 258.161C21.0003 256.094 21.32 254.024 21.5707 251.95C21.9413 248.866 22.152 245.764 22.617 242.695C23.1111 239.423 22.6461 236.064 23.5652 232.839C23.6524 232.539 23.6597 232.209 23.6742 231.891C23.8413 228.076 23.9285 224.257 24.1864 220.449C24.4008 217.286 24.7822 214.13 25.1455 210.977C25.4144 208.646 25.6578 206.304 26.1155 204.006C26.6132 201.519 27.318 199.072 27.9829 196.625C28.4624 194.859 28.9311 193.078 29.5777 191.366C31.1145 187.28 31.1326 183.03 31.0636 178.777C30.98 173.685 30.7039 168.596 30.7076 163.507C30.7076 160.796 30.9074 158.077 31.6267 155.399C32.3678 152.652 32.6875 149.792 33.3596 147.023C33.9191 144.703 34.7183 142.437 35.405 140.146C35.514 139.781 35.6629 139.404 35.6556 139.035C35.5721 134.71 35.4631 130.384 35.3577 126.059C35.3287 124.911 35.325 123.764 35.2342 122.62C35.0853 120.724 34.8746 118.831 34.6929 116.934C34.6566 116.554 34.5476 116.167 34.5985 115.801C34.9327 113.412 35.0707 110.965 35.7029 108.652C37.1778 103.23 39.2704 98.0907 43.9242 94.4566C46.3547 92.5564 49.0685 91.2316 51.9894 90.2543C54.5179 89.411 56.9665 88.3215 59.5168 87.5578C63.5421 86.3525 66.6883 83.5546 70.4266 81.8425C73.3148 80.5178 76.1448 79.0555 79.0802 77.8429C82.4189 76.4603 85.8775 75.3708 89.2198 73.999C91.603 73.0181 93.1652 71.2662 93.2996 68.519C93.3287 67.8928 93.5866 67.2811 93.6701 66.6549C93.7755 65.8405 94.008 64.9755 93.8481 64.2045C93.0707 60.48 93.0853 56.6252 91.8936 52.9731C91.465 51.6592 91.1998 50.291 90.8655 48.9735C87.9337 47.2108 86.3425 44.63 85.8375 41.3218C85.7249 40.5725 85.387 39.8522 85.278 39.103C84.9584 36.9204 85.5106 34.1587 86.7094 31.7951C87.3525 31.6938 88.0936 31.578 88.9727 31.4404C88.8747 30.4632 88.7584 29.475 88.6821 28.4833C88.3878 24.5742 88.7293 20.6976 89.8628 16.9659C91.4214 11.8406 94.0916 7.31619 98.5201 4.1129C101.045 2.28503 103.886 1.1123 107.061 0.565753C108.761 0.27257 110.425 -0.0568223 112.136 0.00832946C116.216 0.167589 120.063 1.24259 123.508 3.42155C127.664 6.05296 130.337 9.86435 132.187 14.4033C134.392 19.8145 134.806 25.3415 134.032 31.0423C134.018 31.1545 134.098 31.2812 134.159 31.4947C134.788 31.5707 135.453 31.6504 136.136 31.7336C136.379 32.0992 136.59 32.4105 136.793 32.7254C136.964 32.9932 137.131 33.2647 137.411 33.7135C137.411 36.0879 137.774 38.6976 137.32 41.1589C136.742 44.2862 135.282 47.142 132.074 48.9264C131.558 51.3117 131.129 53.8707 130.436 56.3573C129.498 59.7054 129.317 63.1006 129.397 66.5319C129.433 68.11 129.629 69.6519 130.403 71.1142C131.246 72.6996 132.594 73.5176 134.167 74.1257C137 75.2224 139.852 76.2721 142.66 77.4267C145.48 78.5849 148.306 79.7468 151.038 81.0933C153.599 82.3565 156.081 83.8007 158.525 85.2811C160.502 86.4756 162.649 87.2212 164.785 88.0102C167.644 89.0635 170.525 90.0517 173.362 91.1592C178.558 93.1898 182.459 96.6356 184.821 101.743C186.02 104.334 186.797 107.031 187.516 109.8C188.519 113.673 188.334 117.564 187.938 121.346C187.538 125.161 187.582 128.965 187.266 132.762C187.073 135.061 186.808 137.326 187.382 139.589C187.756 141.051 188.225 142.488 188.65 143.939C189.286 146.126 189.998 148.29 190.528 150.502C191.629 155.095 192.181 159.742 192.087 164.491C191.952 171.245 192.018 178.003 191.999 184.761C191.992 187.211 192.893 189.473 193.504 191.793C194.099 194.052 194.848 196.271 195.462 198.522C196.028 200.596 196.533 202.688 197.017 204.784C197.245 205.772 197.413 206.778 197.522 207.788C197.863 210.941 198.048 214.115 198.506 217.25C199.102 221.347 198.433 225.538 199.527 229.589C199.578 229.77 199.574 229.969 199.585 230.157C199.738 232.951 199.901 235.745 200.028 238.54C200.112 240.378 200.192 242.188 200.595 244.023C201.067 246.177 200.962 248.446 201.202 250.658C201.427 252.728 201.732 254.795 202.074 256.851C202.353 258.534 202.662 260.217 203.087 261.871C203.509 263.522 204.028 265.158 204.635 266.75C204.835 267.275 205.361 267.862 205.877 268.053C209.997 269.595 213.14 272.415 216.06 275.553C217.172 276.748 217.706 278.242 218.149 279.755C218.567 281.182 219.247 282.423 220.122 283.625C220.78 284.526 221.197 285.619 221.619 286.669C222.044 287.718 222.335 288.826 222.702 289.901C223.225 291.425 223.068 292.377 222.167 293.017C221.317 293.622 219.704 293.607 218.72 292.894C217.15 291.758 216.031 290.223 215.076 288.562C214.764 288.019 214.455 287.472 213.906 286.984C214.171 288.138 214.444 289.289 214.698 290.444C215.661 294.776 216.929 299.015 218.505 303.163C219 304.462 219.737 305.668 220.213 306.971C220.533 307.839 220.685 308.799 220.736 309.725C220.787 310.63 220.235 311.303 219.374 311.607C218.48 311.922 217.546 311.922 216.892 311.151C216.242 310.384 215.661 309.537 215.174 308.657C213.488 305.61 211.864 302.526 210.193 299.471C210.001 299.116 209.648 298.848 209.085 298.675C209.158 299.21 209.14 299.779 209.321 300.275C210.589 303.713 211.846 307.163 213.219 310.561C214.055 312.632 214.033 313.138 212.304 314.72C210.393 315.263 209.227 314.058 208.399 312.7C207.047 310.493 205.906 308.151 204.747 305.831C204.155 304.643 203.708 303.387 203.214 302.207C202.822 302.917 202.768 303.442 203.56 306.732C203.926 308.252 204.704 309.675 205.34 311.253C205.351 312.476 204.351 312.936 203.316 313.428C202.753 313.185 202.175 312.936 201.801 312.776C199.509 310.912 199.015 308.219 197.685 306.015C197.645 305.78 197.609 305.545 197.569 305.313C197.492 305.338 197.416 305.367 197.34 305.393C197.46 305.595 197.583 305.798 197.703 306.001L197.681 305.965Z" fill="#B1C59E"/>
<path d="M145.329 127.451C140.777 114.872 129.395 99.2295 123.442 100.03C119.452 100.564 119.947 104.717 117.557 108.167C117.373 108.434 117.167 108.731 116.95 109.058C116.815 108.911 116.684 108.764 116.549 108.625C116.459 108.531 116.305 108.546 116.23 108.652C115.41 109.775 114.945 110.692 114.522 111.767C114.466 111.914 114.5 112.079 114.612 112.184C114.713 112.278 114.829 112.395 114.949 112.515C113.443 115.623 112.196 119.844 112.997 124.981C114.575 135.106 123.446 140.999 125.019 147.125C126.597 153.251 121 159.22 123.794 161.959C125.836 163.963 130.096 163.733 134.648 164.699C139.2 165.665 145.501 168.172 148.479 166.244C151.454 164.316 149.88 140.026 145.329 127.447V127.451Z" fill="#D5DFCD"/>
<path d="M106.362 112.541C106.557 112.361 106.58 112.064 106.426 111.85C105.733 110.895 105.141 110.02 104.673 109.125C104.613 109.009 104.482 108.971 104.373 109.02C104.358 108.994 104.347 108.964 104.332 108.937C102.432 105.442 104.013 100.357 98.9482 100.038C92.9052 99.6618 82.1569 112.432 76.7733 129.912C71.386 147.392 71.386 163.279 73.6039 164.868C75.8217 166.458 88.1773 162.963 92.9277 162.328C97.6781 161.693 102.747 161.693 104.332 159.787C105.916 157.882 106.846 141.853 106.868 136.587C106.913 127.586 106.546 118.777 105.594 113.346C105.883 113.019 106.145 112.744 106.359 112.545L106.362 112.541Z" fill="#D5DFCD"/>
<path d="M133.921 143.405C133.19 143.521 131.174 143.333 129.575 143.1C129.447 142.773 129.305 142.454 129.144 142.142C131.137 141.075 132.677 139.361 133.036 138.767C133.205 138.489 131.969 137.579 131.688 137.891C130.819 138.868 129.713 139.891 128.076 140.515C127.282 139.552 126.285 138.771 125.094 138.282C125.102 138.124 125.109 137.963 125.117 137.794C127.323 136.88 129.567 136.719 131.036 136.546C131.268 136.519 131.395 134.178 131.107 134.125C128.975 133.746 126.765 134.227 124.888 134.715C124.671 133.907 124.281 133.043 123.599 132.13C123.599 132.096 123.614 132.062 123.648 132.021C124.161 131.457 124.761 130.258 124.828 129.931C124.866 129.751 123.813 128.98 123.712 129.191C123.61 129.405 122.284 131.374 121.572 131.096C120.861 130.818 121.569 128.428 121.64 128.255C121.711 128.082 120.186 127.582 120.104 127.845C120.021 128.108 119.467 130.563 118.605 130.698C117.89 130.807 116.691 128.293 116.623 128.101C116.507 127.77 115.005 128.503 115.147 128.762C115.286 129.277 115.507 129.766 115.717 130.258C115.867 130.611 116.058 130.983 116.133 131.363C115.743 131.566 115.395 131.822 115.039 132.122C114.994 132.16 114.945 132.201 114.9 132.243C114.518 132.585 114.196 132.979 113.922 133.404C113.132 133.287 112.293 133.253 111.39 133.366C111.236 132.227 110.993 131.029 110.596 129.826C110.498 129.529 107.085 130.525 107.156 130.901C107.437 132.333 107.617 133.618 107.733 134.764C105.025 136.519 103.219 139.271 103.181 139.372C103.136 139.507 104.392 140.447 104.504 140.312C104.575 140.229 105.931 138.372 107.887 136.918C107.962 138.692 107.887 140.041 107.853 141.052C107.707 141.157 107.561 141.266 107.422 141.383C106.31 142.296 105.587 143.536 105.152 144.882C104.264 144.739 103.399 144.513 102.552 144.25C102.215 144.145 101.69 145.945 101.878 145.998C102.736 146.238 103.74 146.475 104.747 146.652C104.549 148.057 104.601 149.482 104.822 150.703C104.066 150.91 103.275 151.049 102.458 151.105C102.204 151.124 102.548 152.924 102.878 152.898C103.653 152.834 104.481 152.695 105.317 152.5C106.534 155.837 109.127 158.577 112.547 160.907C114.544 162.268 115.275 164.027 117.148 165.515C118.47 166.567 120.096 166.905 120.921 166.92C121.659 167.044 122.614 167.007 123.449 166.774C127.368 165.778 128.316 160.817 128.571 157.6C128.818 154.514 129.818 151.094 130.197 148.009C130.313 147.054 130.287 146.069 130.122 145.096C131.714 145.186 133.295 145.182 133.984 145.073C134.261 145.028 134.471 143.303 133.913 143.393L133.921 143.405ZM117.013 138.707C116.957 138.654 116.845 137.579 117.062 136.504C117.579 137.004 117.777 137.594 117.646 138.173C117.62 138.286 117.575 138.402 117.519 138.515C117.182 138.662 117.062 138.756 117.013 138.711V138.707ZM118.868 134.306C119.965 134.125 120.58 134.712 120.921 135.445C120.003 135.358 119.066 135.027 118.066 134.644C118.291 134.479 118.553 134.355 118.868 134.302V134.306ZM112.177 135.204C112.502 135.197 112.806 135.204 113.102 135.219C113.019 135.497 112.945 135.775 112.892 136.061C112.69 137.102 112.634 138.192 112.738 139.323C112.457 139.349 112.177 139.383 111.896 139.428C111.772 138.481 111.682 137.049 111.573 135.257C111.776 135.227 111.978 135.212 112.18 135.208L112.177 135.204Z" fill="#FAFAFA"/>
</svg>
