<svg width="167" height="564" viewBox="0 0 167 564" fill="none" xmlns="http://www.w3.org/2000/svg">
<path fill-rule="evenodd" clip-rule="evenodd" d="M83.4998 0.664011C83.4998 0.664011 114.232 -1.61008 109.653 32.6725L109.019 34.7096C109.019 34.7096 112.45 31.3383 113.894 36.3704C115.338 41.4026 108.218 46.5005 108.218 46.5005C108.218 46.5005 105.332 61.3307 98.5147 65.7098L98.2849 76.8582C98.2849 76.8582 98.9621 83.4467 106.174 85.9667L139.24 96.1852C139.24 96.1852 152.331 102.136 152.207 114.507L156.613 191.414C156.613 191.414 158.062 198.949 161.201 205.202C164.34 211.455 165.1 232.779 165.1 232.779L162.509 269.224C162.509 269.224 161.494 282.904 163.222 289.844L164.378 302.12C164.378 302.12 167.296 306.471 163.63 310.844C159.963 315.215 156.931 320.539 156.931 320.539C156.931 320.539 151.16 326.409 148.792 326.294C146.426 326.179 150.499 321.299 150.499 321.299L153.048 318.62C153.048 318.62 155.954 313.137 154.951 305.433L154.429 298.159C154.429 298.159 154.044 295.381 152.988 295.806C152.988 295.806 150.978 295.964 151.061 298.152C151.145 300.339 147.641 306.267 147.641 306.267C147.641 306.267 144.075 308.345 144.161 304.906C144.246 301.467 144.764 289.777 144.764 289.777L146.737 286.14L149.723 282.501L150.599 280.668L142.84 236.452C142.84 236.452 135.586 222.744 137.614 192.394L127.21 146.242C127.21 146.242 119.407 181.559 121.537 196.358C123.667 211.158 134.066 227.243 134.066 227.243C134.066 227.243 142.747 254.127 139.444 279.369C136.141 304.61 134.586 327.667 134.586 327.667L128.55 367.641C128.55 367.641 124.152 395.806 129.694 412.914C135.237 430.021 125.235 472.371 125.235 472.371L119.301 513.565L116.799 531.991C116.799 531.991 120.579 535.803 117.338 539.522C117.338 539.522 116.731 543.549 128.018 553.494C128.018 553.494 135.684 560.152 131.541 562.285C131.541 562.285 128.551 563.412 126.709 562.682C124.867 561.953 123.539 563.124 123.539 563.124C123.539 563.124 122.778 562.898 121.944 562.594C121.11 562.285 113.366 561.903 113.366 561.903C113.366 561.903 108.765 563.727 106.835 561.765C106.835 561.765 105.018 563.743 104.327 562.555C104.327 562.555 99.7784 560.401 98.5308 555.887L98.219 553.395C98.2029 554.295 98.3198 555.124 98.5308 555.887C98.5308 555.887 96.3634 555.903 96.1292 552.776C95.8944 549.649 96.833 549.809 97.3502 545.174C97.8679 540.533 97.003 537.549 97.003 537.549C97.003 537.549 96.9753 535.66 99.7474 533.61C102.519 531.56 98.2173 480.772 98.2173 480.772C98.2173 480.772 90.7135 438.491 98.2173 402.923C98.2173 402.923 98.6919 397.489 95.6585 393.917C92.625 390.346 96.1076 376.589 96.1076 376.589L95.6574 364.719L94.2076 348L91.3785 329.419C91.3785 329.419 86.232 299.643 87.2315 281.036C87.4109 280.947 87.5837 280.854 87.7493 280.756C88.6159 280.315 89.4736 279.922 90.6415 277.921C90.8602 277.57 90.9627 277.344 90.9627 277.344C90.853 277.549 90.7462 277.742 90.6415 277.921C90.1979 278.632 89.2743 279.857 87.7493 280.756C87.5776 280.843 87.4059 280.932 87.2315 281.036C86.2237 281.534 84.9888 281.877 83.4998 281.877C82.0107 281.877 80.7759 281.534 79.768 281.036C79.5936 280.932 79.422 280.843 79.2503 280.756C77.7253 279.857 76.8016 278.632 76.3581 277.921C76.2534 277.742 76.1465 277.549 76.0369 277.344C76.0369 277.344 76.1393 277.57 76.3581 277.921C77.5259 279.922 78.3837 280.315 79.2503 280.756C79.4159 280.854 79.5886 280.947 79.768 281.036C80.7676 299.643 75.621 329.419 75.621 329.419L72.7919 348L71.3422 364.719L70.892 376.589C70.892 376.589 74.3745 390.346 71.3411 393.917C68.3076 397.489 68.7822 402.923 68.7822 402.923C76.2861 438.491 68.7822 480.772 68.7822 480.772C68.7822 480.772 64.4801 531.56 67.2522 533.61C70.0243 535.66 69.9966 537.549 69.9966 537.549C69.9966 537.549 69.1316 540.533 69.6494 545.174C70.1666 549.809 71.1052 549.649 70.8704 552.776C70.6362 555.903 68.4688 555.887 68.4688 555.887C68.6798 555.124 68.7966 554.295 68.7805 553.395L68.4688 555.887C67.2212 560.401 62.6727 562.555 62.6727 562.555C61.9811 563.743 60.1642 561.765 60.1642 561.765C58.2344 563.727 53.6338 561.903 53.6338 561.903C53.6338 561.903 45.8896 562.285 45.0551 562.594C44.2212 562.898 43.4603 563.124 43.4603 563.124C43.4603 563.124 42.1324 561.953 40.2907 562.682C38.4489 563.412 35.4581 562.285 35.4581 562.285C31.3155 560.152 38.9816 553.494 38.9816 553.494C50.2687 543.549 49.6618 539.522 49.6618 539.522C46.4201 535.803 50.2006 531.991 50.2006 531.991L47.6987 513.565L41.7647 472.371C41.7647 472.371 31.7629 430.021 37.3054 412.914C42.8473 395.806 38.4494 367.641 38.4494 367.641L32.4136 327.667C32.4136 327.667 30.8581 304.61 27.5555 279.369C24.2524 254.127 32.9335 227.243 32.9335 227.243C32.9335 227.243 43.3324 211.158 45.4627 196.358C47.593 181.559 39.7895 146.242 39.7895 146.242L29.3857 192.394C31.4135 222.744 24.1594 236.452 24.1594 236.452L16.4008 280.668L17.2763 282.501L20.2621 286.14L22.2356 289.777C22.2356 289.777 22.7534 301.467 22.8387 304.906C22.9245 308.345 19.3584 306.267 19.3584 306.267C19.3584 306.267 15.8548 300.339 15.9384 298.152C16.022 295.964 14.0119 295.806 14.0119 295.806C12.9559 295.381 12.5705 298.159 12.5705 298.159L12.0489 305.433C11.0455 313.137 13.9515 318.62 13.9515 318.62L16.5005 321.299C16.5005 321.299 20.5738 326.179 18.2071 326.294C15.8398 326.409 10.0681 320.539 10.0681 320.539C10.0681 320.539 7.03632 315.215 3.36994 310.844C-0.296436 306.471 2.62183 302.12 2.62183 302.12L3.77751 289.844C5.50576 282.904 4.49073 269.224 4.49073 269.224L1.89918 232.779C1.89918 232.779 2.65948 211.455 5.79869 205.202C8.93735 198.949 10.3865 191.414 10.3865 191.414L14.7921 114.507C14.6687 102.136 27.7599 96.1852 27.7599 96.1852L60.8259 85.9667C68.0374 83.4467 68.7146 76.8582 68.7146 76.8582L68.4848 65.7098C61.6676 61.3307 58.782 46.5005 58.782 46.5005C58.782 46.5005 51.6614 41.4026 53.1055 36.3704C54.5497 31.3383 57.9808 34.7096 57.9808 34.7096L57.3467 32.6725C52.7672 -1.61008 83.4998 0.664011 83.4998 0.664011Z" fill="white"/>
<path d="M98.5308 555.887C99.7784 560.401 104.327 562.555 104.327 562.555C105.018 563.743 106.835 561.765 106.835 561.765C108.765 563.727 113.366 561.903 113.366 561.903C113.366 561.903 121.11 562.285 121.944 562.594C122.778 562.898 123.539 563.124 123.539 563.124C123.539 563.124 124.867 561.953 126.709 562.682C128.551 563.412 131.541 562.285 131.541 562.285C135.684 560.152 128.018 553.494 128.018 553.494C116.731 543.549 117.338 539.522 117.338 539.522C120.579 535.803 116.799 531.991 116.799 531.991L119.301 513.565L125.235 472.371C125.235 472.371 135.237 430.021 129.694 412.914C124.152 395.806 128.55 367.641 128.55 367.641L134.586 327.667C134.586 327.667 136.141 304.61 139.444 279.369C142.747 254.127 134.066 227.243 134.066 227.243C134.066 227.243 123.667 211.158 121.537 196.358C119.407 181.559 127.21 146.242 127.21 146.242L137.614 192.394C135.586 222.744 142.84 236.452 142.84 236.452L150.599 280.668L149.723 282.501L146.737 286.14L144.764 289.777C144.764 289.777 144.246 301.467 144.161 304.906C144.075 308.345 147.641 306.267 147.641 306.267C147.641 306.267 151.145 300.339 151.061 298.152C150.978 295.964 152.988 295.806 152.988 295.806C154.044 295.381 154.429 298.159 154.429 298.159L154.951 305.433C155.954 313.137 153.048 318.62 153.048 318.62L150.499 321.299C150.499 321.299 146.426 326.179 148.792 326.294C151.16 326.409 156.931 320.539 156.931 320.539C156.931 320.539 159.963 315.215 163.63 310.844C167.296 306.471 164.378 302.12 164.378 302.12L163.222 289.844C161.494 282.904 162.509 269.224 162.509 269.224L165.1 232.779C165.1 232.779 164.34 211.455 161.201 205.202C158.062 198.949 156.613 191.414 156.613 191.414L152.207 114.507C152.331 102.136 139.24 96.1852 139.24 96.1852L106.174 85.9667C98.9621 83.4467 98.2849 76.8582 98.2849 76.8582L98.5147 65.7098C105.332 61.3307 108.218 46.5005 108.218 46.5005C108.218 46.5005 115.338 41.4026 113.894 36.3704C112.45 31.3383 109.019 34.7096 109.019 34.7096L109.653 32.6725C114.232 -1.61008 83.4998 0.664011 83.4998 0.664011C83.4998 0.664011 52.7672 -1.61008 57.3467 32.6725L57.9808 34.7096C57.9808 34.7096 54.5497 31.3383 53.1055 36.3704C51.6614 41.4026 58.782 46.5005 58.782 46.5005C58.782 46.5005 61.6676 61.3307 68.4848 65.7098L68.7146 76.8582C68.7146 76.8582 68.0374 83.4467 60.8259 85.9667L27.7599 96.1852C27.7599 96.1852 14.6687 102.136 14.7921 114.507L10.3865 191.414C10.3865 191.414 8.93735 198.949 5.79869 205.202C2.65948 211.455 1.89918 232.779 1.89918 232.779L4.49073 269.224C4.49073 269.224 5.50576 282.904 3.77751 289.844L2.62183 302.12C2.62183 302.12 -0.296436 306.471 3.36994 310.844C7.03632 315.215 10.0681 320.539 10.0681 320.539C10.0681 320.539 15.8398 326.409 18.2071 326.294C20.5738 326.179 16.5005 321.299 16.5005 321.299L13.9515 318.62C13.9515 318.62 11.0455 313.137 12.0489 305.433L12.5705 298.159C12.5705 298.159 12.9559 295.381 14.0119 295.806C14.0119 295.806 16.022 295.964 15.9384 298.152C15.8548 300.339 19.3584 306.267 19.3584 306.267C19.3584 306.267 22.9245 308.345 22.8387 304.906C22.7534 301.467 22.2356 289.777 22.2356 289.777L20.2621 286.14L17.2763 282.501L16.4008 280.668L24.1594 236.452C24.1594 236.452 31.4135 222.744 29.3857 192.394L39.7895 146.242C39.7895 146.242 47.593 181.559 45.4627 196.358C43.3324 211.158 32.9335 227.243 32.9335 227.243C32.9335 227.243 24.2524 254.127 27.5555 279.369C30.8581 304.61 32.4136 327.667 32.4136 327.667L38.4494 367.641C38.4494 367.641 42.8473 395.806 37.3054 412.914C31.7629 430.021 41.7647 472.371 41.7647 472.371L47.6987 513.565L50.2006 531.991C50.2006 531.991 46.4201 535.803 49.6618 539.522C49.6618 539.522 50.2687 543.549 38.9816 553.494C38.9816 553.494 31.3155 560.152 35.4581 562.285C35.4581 562.285 38.4489 563.412 40.2907 562.682C42.1324 561.953 43.4603 563.124 43.4603 563.124C43.4603 563.124 44.2212 562.898 45.0551 562.594C45.8896 562.285 53.6338 561.903 53.6338 561.903C53.6338 561.903 58.2344 563.727 60.1642 561.765C60.1642 561.765 61.9811 563.743 62.6727 562.555C62.6727 562.555 67.2212 560.401 68.4688 555.887M98.5308 555.887L98.219 553.395C98.2029 554.295 98.3198 555.124 98.5308 555.887ZM98.5308 555.887C98.5308 555.887 96.3634 555.903 96.1292 552.776C95.8944 549.649 96.833 549.809 97.3502 545.174C97.8679 540.533 97.003 537.549 97.003 537.549C97.003 537.549 96.9753 535.66 99.7474 533.61C102.519 531.56 98.2173 480.772 98.2173 480.772C98.2173 480.772 90.7135 438.491 98.2173 402.923C98.2173 402.923 98.6919 397.489 95.6585 393.917C92.625 390.346 96.1076 376.589 96.1076 376.589L95.6574 364.719L94.2076 348L91.3785 329.419C91.3785 329.419 86.232 299.643 87.2315 281.036M87.2315 281.036C87.4109 280.947 87.5837 280.854 87.7493 280.756M87.2315 281.036C87.4059 280.932 87.5776 280.843 87.7493 280.756M87.2315 281.036C86.2237 281.534 84.9888 281.877 83.4998 281.877C82.0107 281.877 80.7759 281.534 79.768 281.036M87.7493 280.756C88.6159 280.315 89.4736 279.922 90.6415 277.921M87.7493 280.756C89.2743 279.857 90.1979 278.632 90.6415 277.921M90.6415 277.921C90.8602 277.57 90.9627 277.344 90.9627 277.344C90.853 277.549 90.7462 277.742 90.6415 277.921ZM79.768 281.036C79.5936 280.932 79.422 280.843 79.2503 280.756M79.768 281.036C79.5886 280.947 79.4159 280.854 79.2503 280.756M79.768 281.036C80.7676 299.643 75.621 329.419 75.621 329.419L72.7919 348L71.3422 364.719L70.892 376.589C70.892 376.589 74.3745 390.346 71.3411 393.917C68.3076 397.489 68.7822 402.923 68.7822 402.923C76.2861 438.491 68.7822 480.772 68.7822 480.772C68.7822 480.772 64.4801 531.56 67.2522 533.61C70.0243 535.66 69.9966 537.549 69.9966 537.549C69.9966 537.549 69.1316 540.533 69.6494 545.174C70.1666 549.809 71.1052 549.649 70.8704 552.776C70.6362 555.903 68.4688 555.887 68.4688 555.887M79.2503 280.756C77.7253 279.857 76.8016 278.632 76.3581 277.921M79.2503 280.756C78.3837 280.315 77.5259 279.922 76.3581 277.921M76.3581 277.921C76.2534 277.742 76.1465 277.549 76.0369 277.344C76.0369 277.344 76.1393 277.57 76.3581 277.921ZM68.4688 555.887C68.6798 555.124 68.7966 554.295 68.7805 553.395L68.4688 555.887Z" stroke="black" stroke-width="1.23" stroke-miterlimit="1.5" stroke-linecap="round" stroke-linejoin="round"/>
</svg>
