<svg width="151" height="490" viewBox="0 0 151 490" fill="none" xmlns="http://www.w3.org/2000/svg">
<path d="M147.439 257.376C146.495 254.648 146.006 251.946 145.782 251.218C145.241 249.461 145.734 248.916 145.405 247.501C145.166 246.475 145.092 245.968 144.364 244.512C144.196 244.173 143.756 239.161 143.562 235.649C142.733 227.64 141.666 189.012 140.364 181.981C138.938 174.275 136.292 168.464 135.262 163.326C134.232 158.187 134.949 152.862 134.49 142.017C134.322 138.005 133.236 129.459 133.807 122.036C134.508 112.931 133.758 102.161 129.549 93.8722C125.608 86.1137 116.909 85.1023 109.307 83.0872C101.679 81.0645 92.9354 78.3178 90.45 74.1456C89.8567 73.1492 89.1551 71.2684 88.7483 68.5143C97.9137 67.1857 107.139 63.7786 113.401 56.2104C104.097 54.6579 103.071 45.6343 103.691 38.8125C104.31 31.9906 103.459 19.0113 100.533 13.0328C95.0066 1.73651 78.3551 -3.00294 68.1223 1.96043C59.4383 0.407976 54.3593 6.34535 50.6386 10.9952C46.918 15.6489 35.8903 42.0442 41.4508 54.3519C46.0186 64.4652 55.6617 67.0663 59.1286 67.5701C59.7182 67.656 60.4497 67.7679 61.3005 67.8911C61.0617 71.2348 60.3414 73.1828 59.6324 74.3695C57.147 78.5418 49.6273 81.0682 41.9994 83.0909C34.5618 85.0613 26.2472 86.1212 22.1011 93.4244C17.4065 101.683 16.7907 112.789 17.4998 122.04C18.0707 129.463 16.9848 138.009 16.8168 142.021C16.3578 152.865 17.0743 158.191 16.0443 163.329C15.0144 168.468 12.3685 174.279 10.9429 181.985C9.64049 189.012 8.57318 227.577 7.74471 235.634C7.55065 239.093 7.0991 244.087 6.93117 244.423C6.20346 245.878 6.11762 246.389 5.87878 247.419C5.55038 248.837 6.05418 249.378 5.50933 251.144C5.28542 251.871 4.79282 254.581 3.84866 257.316C2.49773 261.197 0.620605 265.392 0.620605 266.19C0.620605 268.713 2.32233 277.565 3.9942 279.737C5.52426 281.726 13.0962 286.26 14.1822 286.26C15.2681 286.26 15.8092 285.174 15.8092 285.174C15.8092 285.174 17.6752 285.816 17.9774 284.495C18.3842 282.723 16.2123 281.637 15.3987 280.961C14.5852 280.282 11.5848 278.692 10.4988 276.52C9.41285 274.352 9.69647 266.008 10.9242 265.78C12.8723 265.418 11.4654 269.713 11.6034 271.34C11.7378 272.967 12.3386 277.043 14.8576 277.17C18.5372 277.36 17.1639 269.168 17.1639 267C17.1639 264.832 18.4514 262.112 18.6566 260.22C19.0634 256.424 15.9436 252.356 15.9436 249.099C15.9436 248.218 16.9101 244.318 18.3133 238.978C21.4854 225.7 33.5729 185.523 33.5729 179.108C33.5729 174.323 34.5506 166.513 35.0096 161.568C35.2932 158.515 36.6442 148.077 37.8906 137.916C38.0585 141.032 38.9131 144.039 41.1933 146.088C41.4657 152.014 42.38 159.381 42.7122 163.016C43.1973 168.371 45.1453 172.995 44.1452 180.272C43.4511 185.329 40.07 189.833 38.4093 193.363C34.8268 200.973 32.1995 211.414 31.2181 217.426C29.3857 228.67 28.8745 233.649 28.2251 237.545C27.5758 241.437 24.1201 256.062 24.2843 265.474C24.4485 274.882 36.7748 332.476 36.939 334.745C37.0995 337.017 36.4538 341.719 36.6143 344.641C36.7748 347.564 37.913 352.915 37.913 355.673C37.913 358.431 33.9013 371.888 33.8565 378.87C33.696 404.34 40.6895 447.573 40.85 451.301C41.0142 455.033 40.0066 457.284 39.8088 458.672C39.611 460.06 38.831 462.725 39.1296 464.411C36.5509 469.371 29.2103 476.909 27.2287 477.898C25.2434 478.891 24.0604 480.235 23.5379 481.376C23.3103 481.869 23.5379 482.533 23.9298 482.806C23.411 484.299 24.5492 484.996 25.277 484.866C25.2583 485.541 25.7136 486.015 26.0681 486.202C27.434 486.915 28.3445 485.735 28.3445 485.735C28.3445 485.735 28.2177 486.859 29.7216 487.635C31.0986 488.348 32.9832 486.825 32.9832 486.825C32.9832 486.825 32.1137 488.523 34.0505 489.549C35.4985 490.318 37.9205 490.038 39.8274 489.202C42.8764 487.862 45.1155 484.985 45.3804 484.743C45.8507 484.31 47.6942 483.892 48.9705 482.765C51.0155 480.955 50.7618 479.835 51.4298 479.089C51.8403 478.634 55.0459 478.57 57.3671 476.238C59.0689 474.529 58.3934 470.8 58.0277 469.401C57.4157 467.042 56.785 464.311 56.785 463.52C56.785 462.728 56.7365 460.187 56.6357 458.601C56.5349 457.015 54.7847 453.813 54.6429 449.544C54.5197 445.801 63.8531 395.096 63.5956 387.793C63.3344 380.493 61.5505 376.597 61.711 371.731C61.8752 366.865 66.4169 355.833 67.2267 345.612C68.0365 335.39 65.2787 332.797 65.6033 327.766C65.928 322.735 72.093 274.554 72.4177 268.877C72.664 264.537 72.6752 261.126 72.7237 258.786C73.5932 258.995 74.627 259.216 75.5002 259.197C76.8959 259.163 77.3773 258.906 78.6051 258.678C78.773 261.164 78.6014 263.977 78.8813 268.877C79.2059 274.557 85.371 322.735 85.6956 327.766C86.0203 332.797 83.2625 335.39 84.0723 345.612C84.8821 355.833 89.4275 366.865 89.588 371.731C89.7484 376.597 87.9646 380.49 87.7034 387.793C87.4421 395.092 96.7792 445.801 96.6561 449.544C96.5143 453.817 94.764 457.015 94.6633 458.601C94.5625 460.187 94.514 462.728 94.514 463.52C94.514 464.311 93.8833 467.042 93.2713 469.401C92.9093 470.8 92.2338 474.529 93.9318 476.238C96.253 478.57 99.4624 478.634 99.8692 479.089C100.537 479.835 100.283 480.955 102.328 482.765C103.605 483.892 105.448 484.31 105.919 484.743C106.184 484.989 108.423 487.862 111.472 489.202C113.375 490.038 115.8 490.318 117.248 489.549C119.185 488.523 118.316 486.825 118.316 486.825C118.316 486.825 120.2 488.348 121.577 487.635C123.081 486.855 122.954 485.735 122.954 485.735C122.954 485.735 123.861 486.915 125.231 486.202C125.585 486.015 126.041 485.541 126.022 484.866C126.75 484.996 127.888 484.295 127.369 482.806C127.757 482.537 127.985 481.869 127.761 481.376C127.239 480.235 126.056 478.891 124.07 477.898C122.085 476.906 114.748 469.367 112.169 464.411C112.468 462.725 111.688 460.06 111.49 458.672C111.292 457.284 110.289 455.033 110.449 451.301C110.613 447.57 117.607 404.34 117.442 378.87C117.398 371.888 113.386 358.431 113.386 355.673C113.386 352.915 114.52 347.56 114.685 344.641C114.845 341.723 114.2 337.017 114.36 334.745C114.524 332.472 126.85 274.882 127.015 265.474C127.175 256.066 123.719 241.441 123.074 237.545C122.425 233.652 121.913 228.67 120.081 217.426C119.099 211.414 116.472 200.973 112.89 193.363C111.229 189.833 107.848 185.329 107.154 180.272C106.154 172.995 108.102 168.367 108.587 163.016C108.919 159.381 109.83 152.014 110.106 146.088C112.386 144.039 113.237 141.032 113.408 137.916C114.655 148.077 116.009 158.515 116.289 161.568C116.748 166.509 117.726 174.323 117.726 179.108C117.726 185.508 129.246 224.957 132.452 238.336C132.437 238.336 132.445 238.336 132.452 238.336C133.605 242.766 135.37 248.404 135.37 249.184C135.37 252.431 132.258 256.491 132.665 260.279C132.866 262.168 134.154 264.881 134.154 267.045C134.154 269.21 132.784 277.382 136.453 277.192C138.968 277.061 139.565 272.997 139.699 271.374C139.834 269.751 138.434 265.466 140.375 265.828C141.603 266.056 141.882 274.378 140.8 276.543C139.718 278.707 136.725 280.297 135.911 280.972C135.098 281.648 132.933 282.73 133.34 284.499C133.642 285.816 135.505 285.174 135.505 285.174C135.505 285.174 136.046 286.257 137.128 286.257C138.21 286.257 145.764 281.734 147.29 279.748C148.958 277.58 150.66 268.751 150.656 266.232C150.656 265.433 148.786 261.249 147.443 257.372L147.439 257.376Z" fill="#E0C1BE"/>
<path d="M87.3974 25.7026C88.6178 25.5757 89.5843 25.0644 90.2299 24.068C91.2077 22.6462 91.0061 21.3326 90.0284 20.0861C89.5918 18.5486 88.6551 17.7164 87.3228 17.4589C87.1138 16.9141 86.7854 16.455 86.2256 16.1565C85.9607 14.8018 85.2666 14.1898 84.4605 13.7569C84.6919 12.6859 83.6469 11.8649 81.5272 11.2566C81.2436 10.6931 80.7846 10.3945 80.0979 10.443C78.2731 8.93536 76.6385 8.59576 75.1458 9.14061C74.6457 9.03985 74.2688 9.20405 73.974 9.54738C73.459 8.5771 72.4476 8.42783 70.6564 9.54738C70.0891 9.27869 69.5405 9.20032 69.0255 9.54738C68.8016 9.26003 68.3314 9.21898 67.4955 9.54738C66.7192 9.47648 66.1408 9.68546 65.7079 10.1072C65.2676 10.4318 64.7227 10.7453 63.9726 11.0513C63.3942 10.8461 62.9165 11.2566 62.5172 12.1709C60.5542 12.0813 59.2667 13.1934 58.4607 15.1564C57.9979 15.2832 57.6285 15.6452 57.468 16.5595C57.1918 16.7909 56.994 17.0671 57.0836 17.5037C56.5052 17.847 56.2514 18.1978 56.4977 18.5747C55.5909 20.2951 56.0312 21.5192 56.7776 22.6313C56.1394 23.3552 57.1806 24.3554 59.0242 25.4899C60.4945 26.0496 61.9462 26.281 63.3867 26.281C63.9204 27.6357 65.3646 28.3522 67.1111 28.8597C68.8016 29.3075 70.3765 29.1583 71.858 28.5798C72.2611 30.9533 73.4105 32.446 75.8138 32.4572C76.9072 34.5396 79.0194 35.6144 81.1727 36.6406L83.3185 36.4391C82.6468 35.9316 82.2438 35.3307 82.1169 34.6254C78.1686 29.2254 81.5944 26.9527 87.3974 25.6951V25.7026Z" fill="#FBDDDF"/>
<path d="M103.507 161.301C102.664 158.92 100.826 157.337 98.3286 156.846C95.5049 156.291 94.1361 157.026 93.0374 157.619C92.4074 157.96 91.9461 158.14 91.3049 158.11C88.2824 157.971 85.7811 157.191 83.8724 155.792C83.1899 155.294 82.5899 154.727 82.0536 154.105C81.0261 155.155 80.0324 156.25 79.0424 157.356C81.2624 159.786 84.5886 161.009 86.8011 161.826C87.6074 162.122 88.2449 162.355 88.6199 162.569C89.4899 163.064 90.1799 163.457 90.2436 163.896C90.4649 165.389 88.6124 168.321 85.6011 170.151C83.7561 171.272 82.0874 171.284 80.6174 171.295C79.5974 171.302 78.6336 171.306 77.7561 171.685C77.2161 171.917 76.8486 172.146 76.5749 172.319C76.4961 172.367 76.4061 172.427 76.3349 172.465C76.3011 172.412 76.2599 172.352 76.2336 172.307C75.8736 171.749 75.2736 170.811 73.9799 170.455C72.0561 169.926 67.0649 169.442 62.3061 176.436C57.2436 183.872 61.0086 188.897 61.8149 189.827C63.3486 191.601 66.2999 192.385 67.9874 191.98C69.0074 191.74 69.7724 191.909 70.6686 192.107C71.1674 192.216 71.6886 192.336 72.2961 192.392C73.6611 192.52 75.0299 192.475 76.3799 192.254C77.7486 192.029 79.0011 191.515 80.2986 191.042C80.7149 190.892 81.2511 190.769 81.5436 191.102C81.7199 191.305 81.7236 191.616 81.6261 191.867C81.5249 192.119 81.3374 192.325 81.1536 192.52C80.3174 193.427 79.3124 194.294 78.6636 195.381C77.7336 196.934 77.7749 198.977 78.6336 200.549C79.6461 202.405 81.6899 202.896 83.6249 203.196C85.3349 203.462 87.5924 204.122 87.9261 206.102C88.7736 206.005 89.6549 206.076 90.5136 206.432C90.9374 206.605 91.2749 206.819 91.5411 207.047C91.4549 205.634 91.3986 204.134 90.5586 202.934C89.3886 201.265 87.6861 200.23 85.6724 199.964C84.8174 199.851 83.9361 199.81 83.1486 199.461C82.2636 199.071 81.6374 198.321 82.0611 197.324C82.3574 196.626 83.0211 196.124 83.5086 195.572C84.0711 194.931 84.6861 194.339 85.1961 193.652C87.3749 190.735 84.6524 187.109 81.3561 187.206C79.9686 187.251 78.5249 187.626 77.1861 187.99C76.5074 188.174 75.8061 188.361 75.1086 188.481C73.2674 188.792 71.8874 188.781 70.6311 188.436C70.3799 188.365 70.0836 188.057 69.7461 187.697C69.4499 187.386 69.1161 187.03 68.6886 186.711C68.5461 186.606 68.4074 186.509 68.2649 186.419C67.4174 185.852 66.6824 185.361 67.2299 182.766C67.6011 181.007 69.1011 178.866 70.7136 177.782C71.7261 177.104 72.4274 176.969 73.0461 176.849C73.3536 176.789 73.6424 176.732 73.9424 176.612C74.1786 176.519 74.3661 176.515 74.4186 176.534C74.4186 176.605 74.4186 176.744 74.4111 176.826C74.3736 177.794 74.2986 179.807 76.4736 181.844C77.7936 183.077 81.2511 185.087 85.8486 184.806C90.3374 184.532 94.4699 182.166 98.1449 177.771C103.061 171.891 105.06 165.73 103.489 161.294L103.507 161.301Z" fill="#ECCED0"/>
<path d="M86.4674 93.025C83.0662 93.4787 83.4899 97.0075 81.4499 99.94C81.2924 100.165 81.1162 100.42 80.9324 100.697C80.8199 100.574 80.7037 100.45 80.5912 100.33C80.5162 100.251 80.3812 100.262 80.3174 100.352C79.6162 101.309 79.2187 102.089 78.8624 103C78.8137 103.124 78.8437 103.262 78.9412 103.352C79.0274 103.435 79.1249 103.532 79.2262 103.634C77.9399 106.277 76.8787 109.862 77.5612 114.231C78.9037 122.837 86.4674 127.844 87.8137 133.052C89.1599 138.261 84.3862 143.331 86.7674 145.66C88.5074 147.362 92.1412 147.167 96.0224 147.989C99.9037 148.81 105.277 150.94 107.816 149.301C110.355 147.662 109.009 127.019 105.127 116.327C101.246 105.64 91.5412 92.3462 86.4674 93.025Z" fill="#ECCED0"/>
<path d="M71.9024 103.66C72.0674 103.506 72.0899 103.255 71.9549 103.071C71.3624 102.261 70.8599 101.515 70.4587 100.757C70.4062 100.66 70.2937 100.626 70.2037 100.667C70.1924 100.645 70.1812 100.619 70.1699 100.596C68.5499 97.6261 69.8999 93.3024 65.5799 93.0324C60.4312 92.7099 51.2662 103.566 46.6724 118.424C42.0824 133.277 42.0824 146.781 43.9724 148.131C45.8624 149.481 56.3962 146.511 60.4499 145.971C64.4999 145.431 68.8237 145.431 70.1737 143.811C71.5237 142.191 72.3149 128.567 72.3374 124.094C72.3749 116.444 72.0637 108.955 71.2537 104.339C71.5012 104.061 71.7224 103.829 71.9062 103.656L71.9024 103.66Z" fill="#ECCED0"/>
<path d="M88.8525 146.961C87.8812 146.939 83.6737 146.129 82.0387 146.133C80.4037 146.133 77.1225 146.436 76.3425 147.621C75.7687 148.491 75.7162 150.25 75.7537 151.278C75.7837 152.065 76.065 153.081 76.3725 154.825C76.68 156.569 76.8187 160.139 77.6325 160.833C78.4462 161.53 85.455 157.93 87.4387 155.976C88.665 154.769 90.2625 152.234 91.065 151.053C91.8675 149.871 93.8925 148.356 93.1612 147.22C92.325 145.919 89.82 146.984 88.8525 146.961Z" fill="#FBDDDF"/>
<path d="M75.8061 155.815C75.4874 153.827 74.7786 151.304 74.9736 149.852C75.1611 148.454 75.6636 147.344 75.1124 147.122C72.5849 146.114 57.4461 144.344 51.9824 150.426C46.5224 156.509 50.2574 170.294 50.1449 172.116C50.0324 173.939 48.2811 175.701 49.4774 176.804C50.7186 177.955 53.7749 176.732 55.3986 175.709C55.6761 175.532 56.0511 175.337 56.1299 175.015C56.1974 174.734 56.1224 174.441 56.1224 174.025C56.1299 173.095 56.5574 171.816 58.5261 171.051C60.6711 170.215 61.6649 170.564 62.2199 171.156C62.4224 171.37 62.7149 171.689 62.9286 171.749C63.2736 171.846 63.7686 171.779 64.1399 171.707C66.4349 171.261 70.7924 170.046 72.6074 168.775C76.3799 166.131 77.0886 162.426 76.6724 160.99C76.2561 159.554 76.0499 157.307 75.8099 155.815H75.8061Z" fill="#FBDDDF"/>
<path d="M60.4687 171.182C59.0962 171.182 57.3112 172.097 56.8874 173.08C56.8724 173.114 56.8612 173.144 56.8499 173.177C56.4187 174.422 57.1537 175.176 58.2712 175.176C58.3387 175.176 58.4099 175.176 58.4774 175.169C60.0037 175.045 62.0624 173.999 62.1262 172.855C62.1974 171.64 61.4324 171.182 60.4649 171.182H60.4687Z" fill="#FBDDDF"/>
<path d="M95.4 129.891C94.7775 129.993 93.06 129.831 91.695 129.633C91.5862 129.355 91.4662 129.081 91.3275 128.819C93.03 127.911 94.3425 126.456 94.6462 125.95C94.7887 125.714 93.735 124.941 93.4987 125.208C92.7562 126.04 91.815 126.906 90.42 127.435C89.745 126.618 88.89 125.954 87.8775 125.538C87.885 125.403 87.8925 125.264 87.8962 125.125C89.7787 124.349 91.6912 124.21 92.9437 124.064C93.1387 124.041 93.2512 122.05 93.0037 122.009C91.185 121.686 89.2987 122.095 87.7012 122.511C87.5137 121.825 87.1837 121.09 86.6025 120.314C86.6025 120.284 86.6137 120.254 86.6437 120.224C87.0825 119.744 87.5925 118.728 87.6525 118.446C87.6862 118.293 86.7862 117.636 86.7 117.82C86.6137 118 85.4812 119.676 84.8737 119.44C84.2662 119.204 84.8737 117.171 84.93 117.025C84.99 116.879 83.6887 116.455 83.6175 116.676C83.5462 116.898 83.0737 118.986 82.3387 119.099C81.7275 119.193 80.7037 117.051 80.6475 116.89C80.5462 116.609 79.2675 117.231 79.3912 117.453C79.5112 117.888 79.6987 118.308 79.875 118.724C80.0025 119.024 80.1675 119.339 80.2275 119.661C79.8937 119.834 79.5975 120.051 79.2937 120.306C79.2525 120.34 79.215 120.374 79.1775 120.408C78.8512 120.7 78.5775 121.034 78.345 121.394C77.67 121.296 76.9575 121.266 76.185 121.364C76.0537 120.396 75.8475 119.376 75.5062 118.356C75.4237 118.101 72.5137 118.949 72.5737 119.271C72.8137 120.49 72.9675 121.581 73.065 122.556C70.755 124.049 69.2137 126.389 69.1837 126.471C69.1462 126.584 70.215 127.386 70.3125 127.27C70.3725 127.199 71.5312 125.62 73.1962 124.386C73.26 125.894 73.1962 127.041 73.1662 127.9C73.0387 127.99 72.9187 128.084 72.7987 128.181C71.85 128.958 71.235 130.011 70.8637 131.155C70.1062 131.031 69.3675 130.84 68.6475 130.619C68.3587 130.529 67.9125 132.059 68.0737 132.104C68.805 132.306 69.66 132.509 70.5225 132.659C70.3537 133.855 70.3987 135.063 70.5862 136.105C69.9412 136.278 69.2662 136.401 68.5687 136.446C68.3512 136.461 68.6475 137.991 68.925 137.969C69.5887 137.916 70.2937 137.796 71.0062 137.631C72.045 140.47 74.2537 142.799 77.1712 144.779C78.8737 145.934 79.4962 147.43 81.0937 148.698C82.2187 149.59 83.6062 149.879 84.3112 149.894C84.9375 149.999 85.755 149.969 86.4675 149.77C89.8087 148.923 90.6187 144.708 90.8362 141.974C91.0462 139.353 91.9012 136.443 92.2237 133.821C92.325 133.011 92.2987 132.171 92.16 131.346C93.5175 131.421 94.8675 131.421 95.4525 131.328C95.6887 131.29 95.8687 129.824 95.3925 129.899L95.4 129.891ZM77.4675 123.648C77.295 124.533 77.2462 125.459 77.3362 126.423C77.0962 126.445 76.8562 126.471 76.6162 126.513C76.5112 125.706 76.4325 124.491 76.3425 122.965C76.515 122.943 76.6875 122.928 76.86 122.924C77.1375 122.916 77.3962 122.924 77.6475 122.935C77.5762 123.171 77.5162 123.408 77.4675 123.651V123.648ZM81.525 125.444C81.5025 125.541 81.465 125.639 81.4162 125.733C81.1275 125.856 81.0262 125.939 80.985 125.898C80.9362 125.853 80.8425 124.941 81.0262 124.026C81.4687 124.45 81.6375 124.953 81.525 125.444ZM81.8812 122.448C82.0725 122.305 82.2937 122.2 82.5637 122.159C83.4975 122.005 84.0225 122.504 84.315 123.126C83.5312 123.051 82.7325 122.77 81.8812 122.448Z" fill="white"/>
<path d="M105.994 204.04C106.425 203.65 107.152 203.005 107.355 200.778C107.591 198.19 105.99 197.429 105.311 197.106C105.262 197.084 105.202 197.058 105.161 197.031C105.176 197.013 105.199 196.99 105.217 196.975C105.521 196.66 106.095 196.079 106.234 194.5C106.436 192.153 104.006 189.58 101.854 189.021C99.9637 188.53 98.3549 189.73 97.665 190.244C97.5487 190.334 97.4324 190.416 97.3912 190.443C97.2974 190.488 97.035 190.476 96.7799 190.461C96.2587 190.439 95.5499 190.409 94.8712 190.716C94.4849 190.889 94.1737 191.331 93.9187 191.688C93.8024 191.856 93.645 192.081 93.5812 192.111C93.5175 192.13 93.2587 192.16 93.0074 192.19C92.3287 192.265 91.2937 192.378 90.4874 192.678C89.2425 193.135 88.6949 193.735 88.3612 194.091C88.2487 194.215 88.1324 194.339 88.0762 194.354C87.9824 194.369 87.6074 194.283 87.2737 194.211C86.3737 194.005 85.0124 193.69 83.7899 193.885C83.2312 193.971 82.7399 194.166 82.3237 194.395C82.1324 194.5 81.9562 194.613 81.7912 194.725C81.5099 194.916 81.2699 195.111 81.0674 195.276C80.8424 195.46 80.6099 195.648 80.5087 195.67C80.4262 195.685 80.2087 195.591 79.9987 195.498C79.5787 195.303 79.0087 195.044 78.2399 195.025C78.1049 195.018 77.9662 195.025 77.8199 195.04C77.6624 195.051 77.4937 195.074 77.3249 195.111C76.6724 195.25 76.0874 195.591 75.6149 195.865C75.3074 196.045 74.9924 196.229 74.8424 196.229C74.7262 196.229 74.4937 196.079 74.2687 195.933C73.8262 195.64 73.2187 195.246 72.4237 195.198C71.3287 195.134 70.6574 195.595 70.1662 195.936C69.9337 196.094 69.7387 196.229 69.6037 196.229C69.5099 196.229 69.4199 196.12 69.2662 195.918C68.9624 195.524 68.5012 194.924 67.2974 194.736C66.4312 194.598 65.5462 194.95 65.0212 195.164C64.9087 195.209 64.7737 195.261 64.6912 195.284C64.6387 195.205 64.5487 195.04 64.4662 194.89C64.1062 194.211 63.5062 193.083 62.3137 192.423C61.1699 191.785 60.0749 191.808 59.3512 191.823C59.0849 191.83 58.7587 191.838 58.6912 191.781C58.6162 191.729 58.5187 191.534 58.4174 191.328C58.1174 190.739 57.6749 189.85 56.5087 189.231C55.2337 188.556 53.8349 189.044 52.9987 189.333C52.7774 189.411 52.5524 189.486 52.4737 189.486C52.3949 189.486 52.1962 189.423 51.9862 189.355C51.2062 189.108 49.7587 188.646 48.2624 189.318C46.8824 189.94 46.7137 190.971 46.6012 191.65C46.5524 191.928 46.5187 192.168 46.4174 192.265C46.3387 192.344 46.1512 192.43 45.9337 192.528C45.1199 192.895 43.7512 193.514 43.4512 195.861C43.1699 198.048 44.2874 198.685 44.8912 199.03C45.0262 199.105 45.2062 199.21 45.2249 199.259C45.2249 199.42 45.1199 199.604 44.9887 199.836C44.7562 200.249 44.4412 200.811 44.3812 201.775C44.3137 202.818 44.8837 203.174 45.2587 203.41C45.5024 203.56 45.5962 203.631 45.5962 203.751C45.5962 203.943 45.3787 204.258 45.1462 204.588C44.7299 205.195 44.1562 206.024 44.0962 207.108C44.0287 208.3 44.5762 209.178 44.9362 209.759C45.0712 209.969 45.2174 210.213 45.2174 210.306C45.2174 210.408 45.1049 210.603 44.9887 210.805C44.7074 211.296 44.2799 212.043 44.2799 213.209C44.2799 214.499 45.1462 215.335 45.6187 215.785C45.6974 215.864 45.7912 215.954 45.8437 216.014C45.7837 216.078 45.6749 216.183 45.5812 216.269C45.0112 216.813 43.9462 217.821 44.0924 219.22C44.2237 220.446 45.1537 221.166 45.7724 221.646C45.9487 221.785 46.1887 221.969 46.2412 222.04C46.1587 222.111 45.9337 222.243 45.7312 222.355C44.5162 223.045 41.6774 224.658 41.7524 228.565C41.7974 230.819 42.6899 232.866 44.2724 234.318C45.9112 235.829 48.1912 236.605 50.5087 236.459C53.1262 236.29 54.1649 234.475 54.9224 233.148C55.1999 232.66 55.4437 232.24 55.7024 232C55.8899 231.828 56.1262 231.663 56.3999 231.468C57.5924 230.616 59.2237 229.45 59.4262 226.323C59.5649 224.211 57.7387 223.03 56.6549 222.318C56.3249 222.104 55.9124 221.834 55.8712 221.718C55.8712 221.605 55.9237 221.448 55.9912 221.253C56.1562 220.776 56.4037 220.056 56.3362 218.811C56.2724 217.578 55.7399 216.895 55.3874 216.445C55.2562 216.273 55.1212 216.1 55.1212 216.018C55.1362 215.924 55.3912 215.669 55.5749 215.485C56.0999 214.96 56.8987 214.165 56.8987 213.111C56.8987 212.058 56.2162 211.041 55.7662 210.393C55.5937 210.149 55.4174 209.894 55.3987 209.793C55.3912 209.673 55.6724 209.256 55.8787 208.953C56.3624 208.24 56.9624 207.348 56.9024 206.541C56.8312 205.645 56.2162 205.03 55.8449 204.659C55.7549 204.569 55.6424 204.453 55.6012 204.393C55.6312 204.333 55.7324 204.213 55.8074 204.123C56.0437 203.841 56.3699 203.455 56.4337 202.938C56.4787 202.589 56.3737 202.27 56.2424 202.008C56.2612 202.023 56.2837 202.041 56.3024 202.056C56.9137 202.54 57.8287 203.268 58.8374 203.68C59.9249 204.13 60.9149 203.886 61.6387 203.703C61.9649 203.624 62.2724 203.545 62.4112 203.594C62.5574 203.643 62.7712 203.811 63.0112 204.01C63.5774 204.468 64.3499 205.09 65.5349 205.285C66.5849 205.458 67.6649 205.184 68.4562 204.985C68.8987 204.873 69.3599 204.753 69.5249 204.813C69.6337 204.85 69.7649 205.053 69.9074 205.27C70.2787 205.84 70.8374 206.699 72.2849 206.879C73.1849 206.991 74.0437 206.511 74.6137 206.193C74.8087 206.084 75.0449 205.953 75.1162 205.945C75.2024 205.956 75.5099 206.129 75.7612 206.271C76.4549 206.665 77.5087 207.261 78.4912 207.261C79.4737 207.261 80.3062 206.579 81.0149 206.028C81.3299 205.784 81.7199 205.48 81.8587 205.48C81.9787 205.48 82.2974 205.555 82.6649 205.641C83.8612 205.923 85.8637 206.391 87.7049 206.035C89.5349 205.683 90.7799 204.486 91.4512 203.841C91.5862 203.714 91.7324 203.571 91.8074 203.519C91.9049 203.549 92.1262 203.661 92.2949 203.748C92.7412 203.98 93.2962 204.265 93.75 204.265C94.1137 204.265 94.5412 204.059 94.9162 203.875C95.0625 203.804 95.2649 203.706 95.3962 203.665C95.3512 203.778 95.2537 203.946 95.1824 204.081C94.9462 204.516 94.6462 205.056 94.6462 205.63C94.6462 206.358 95.0512 207.449 95.3174 208.169C95.3962 208.375 95.4637 208.563 95.4899 208.656C95.4562 208.791 95.1824 209.211 94.9387 209.586C94.2599 210.629 93.3337 212.058 93.3337 213.209C93.3337 214.27 93.9337 215.466 94.3687 216.344C94.6012 216.801 94.86 217.326 94.8337 217.476C94.8037 217.649 94.6049 217.911 94.3987 218.189C94.0499 218.646 93.6149 219.22 93.6149 219.854C93.6149 220.488 93.9562 220.836 94.2299 221.133C94.4287 221.343 94.5487 221.481 94.5487 221.628C94.5487 221.804 94.3162 222.284 94.1099 222.711C93.7162 223.521 93.2737 224.436 93.3374 225.115C93.3899 225.708 93.7424 226.518 94.0537 227.226C94.2299 227.631 94.4775 228.186 94.4662 228.314C94.4475 228.374 94.29 228.561 94.1662 228.708C93.6937 229.27 92.9062 230.215 93.0524 231.393C93.1649 232.27 93.4912 232.885 93.7087 233.29C93.8099 233.474 93.945 233.729 93.9262 233.778C93.8549 233.834 93.4949 233.834 93.1799 233.83C92.5237 233.83 91.5337 233.823 90.3187 234.141C89.7337 234.291 89.2687 234.644 88.8899 234.925C88.5974 235.143 88.3199 235.353 88.1287 235.353C87.9749 235.353 87.5774 235.143 87.1949 234.936C86.3887 234.505 85.2824 233.913 84.1162 233.853C82.8637 233.785 82.0874 234.168 81.4687 234.471C81.1837 234.614 80.9362 234.738 80.6849 234.794C80.3512 234.869 79.6237 234.696 78.8512 234.516C77.8799 234.288 76.6762 234.006 75.5812 234.04C72.7612 234.126 70.8412 236.586 70.3049 240.79C69.8587 244.304 70.6574 246.018 71.2387 247.274C71.5199 247.878 71.7637 248.399 71.8012 248.976C71.8312 249.441 71.6399 250.064 71.4187 250.78C71.0099 252.1 70.4999 253.75 71.0624 255.49C71.9362 258.213 73.2224 259.784 73.9874 260.721C74.2574 261.051 74.5687 261.43 74.5612 261.539C74.5124 261.693 74.4674 261.828 74.5949 261.933C74.7187 262.038 74.8574 261.963 74.9024 261.94C74.9624 261.903 75.0599 261.846 75.2437 261.854C75.5774 261.865 75.7499 261.854 75.8887 261.854C76.0162 261.854 76.0987 261.846 76.2637 261.861C76.2899 261.869 76.3312 261.88 76.3762 261.899C76.4924 261.948 76.6424 262 76.7737 262C76.8674 262 76.9537 261.974 77.0287 261.903C77.2012 261.738 77.1112 261.479 77.0849 261.393C77.0587 261.276 77.4337 260.841 77.7112 260.53C78.3337 259.821 79.2749 258.749 79.7287 257.271C80.5162 254.714 80.5462 252.235 80.5649 250.596C80.5762 249.805 80.5799 249.179 80.6699 248.834C80.9174 247.84 81.3187 247.15 81.6637 246.543L81.7687 246.366C82.0199 245.928 82.0124 245.519 82.0049 245.249V245.208C82.3462 245.549 83.0324 246.186 84.5399 246.385C86.1299 246.591 87.3749 246.018 88.1174 245.673C88.3537 245.564 88.5974 245.451 88.6762 245.451C88.7699 245.466 89.0287 245.74 89.2199 245.939C89.7749 246.516 90.6224 247.394 91.6949 247.323C92.7712 247.255 93.4087 246.569 93.8287 246.111C93.9862 245.939 94.1624 245.748 94.2524 245.725C94.3537 245.71 94.6762 245.845 94.9424 245.954C95.7937 246.288 97.2187 246.854 98.5874 246.374C100.02 245.875 100.721 244.469 101.141 243.625C101.254 243.396 101.396 243.115 101.456 243.066C101.52 243.018 101.722 242.943 101.944 242.86C102.806 242.541 104.404 241.953 105.442 240.385C106.492 238.818 105.971 236.748 105.694 235.641C105.634 235.405 105.566 235.135 105.57 235.075C105.581 235.026 105.712 234.88 105.814 234.764C106.26 234.254 107.092 233.305 107.167 231.565C107.231 229.971 106.459 229.011 105.945 228.374C105.765 228.149 105.577 227.916 105.577 227.811C105.577 227.673 105.742 227.448 105.915 227.204C106.282 226.686 106.792 225.981 106.792 224.909C106.792 223.836 106.275 223.034 105.9 222.426C105.754 222.19 105.551 221.864 105.57 221.774C105.592 221.661 105.735 221.47 105.885 221.268C106.226 220.803 106.699 220.165 106.699 219.295C106.699 218.425 105.994 217.941 105.532 217.645C105.416 217.566 105.259 217.473 105.206 217.409C105.244 217.323 105.382 217.12 105.51 216.944C106.024 216.216 106.98 214.859 106.98 213.115C106.98 211.371 106.226 210.078 105.825 209.38C105.712 209.185 105.585 208.964 105.577 208.908C105.585 208.821 105.772 208.555 105.919 208.341C106.301 207.79 106.822 207.033 106.886 206.208C106.95 205.353 106.455 204.966 106.091 204.685C105.885 204.528 105.761 204.419 105.761 204.318C105.761 204.254 105.825 204.186 105.99 204.044L105.994 204.04Z" fill="#FBDDDF"/>
<path d="M91.9161 211.713C91.9611 211.578 92.0211 211.424 92.0849 211.255C92.3136 210.666 92.6024 209.939 92.5611 209.118C92.5274 208.413 92.2124 207.13 90.5174 206.433C87.6899 205.266 84.5886 207.175 83.2649 207.989C82.5074 208.454 81.8586 209.046 81.2849 209.568C79.8711 210.854 79.4061 211.135 78.5774 210.828C78.0561 210.633 77.5499 210.276 77.1899 209.849C77.1036 209.748 77.0099 209.613 76.9049 209.474C76.4249 208.81 75.6224 207.7 74.0399 207.516C71.5724 207.228 69.3336 209.643 69.0524 211.908C68.8686 213.4 68.6024 214.064 68.1336 214.199C68.0324 214.229 67.9686 214.236 67.9386 214.236C67.8674 214.173 67.5824 213.854 67.3236 212.789C67.0836 211.803 66.9786 210.644 66.8924 209.718C66.8511 209.249 66.8136 208.84 66.7649 208.499C66.5136 206.759 65.4674 205.435 63.9036 204.873C62.1561 204.243 60.0636 204.711 58.5674 206.061C56.3661 208.049 57.6786 210.704 58.3874 212.133C58.6274 212.613 58.8974 213.16 58.9574 213.471C59.0961 214.18 58.9536 214.39 58.4099 215.174C58.0874 215.643 57.6861 216.224 57.3599 216.985C56.8649 218.144 56.8574 219.385 57.3411 220.398C58.0536 221.883 59.2311 222.171 59.8724 222.213C60.6299 222.261 61.2974 222.021 61.8336 221.83C61.9761 221.778 62.1711 221.71 62.3099 221.673C62.4336 221.766 62.5049 221.856 62.5274 221.939C62.7036 222.693 61.4924 224.549 60.7724 225.655C60.1011 226.683 59.4674 227.658 59.1711 228.576C58.6011 230.354 58.9199 232.218 60.0074 233.448C61.0424 234.618 62.6924 235.199 64.1436 235.713C64.5824 235.866 64.9949 236.013 65.3024 236.148C66.3411 236.601 67.3386 236.823 68.2349 236.823C69.5624 236.823 70.6686 236.331 71.3586 235.379C72.1049 234.344 72.1311 232.9 71.4261 231.7C71.4261 231.7 71.4261 231.693 71.4224 231.689C72.0224 231.809 72.6599 231.88 73.3499 231.839C74.7186 231.756 75.6299 231.936 76.7661 232.709C77.7374 233.369 78.6374 234.141 79.8861 234.085C81.1199 234.029 82.1136 233.534 82.9911 233.095C83.3774 232.904 83.7449 232.72 84.0786 232.604C84.8061 232.353 85.6386 232.353 86.3661 232.604C86.4561 232.634 86.5499 232.671 86.6436 232.705C87.3786 232.975 88.6086 233.433 89.8799 232.833C90.8399 232.379 91.4924 231.479 91.8186 230.159C92.3774 227.89 92.1224 225.479 91.0986 223.379C90.5286 222.213 89.8199 221.399 88.9274 220.9C87.2511 219.959 84.9974 220.259 83.3211 221.646C82.6386 222.209 82.1436 223.008 81.6636 223.776C81.3824 224.23 80.8836 225.033 80.5611 225.291C80.4786 225.186 80.3811 225.048 80.3061 224.943C80.1074 224.661 79.8824 224.343 79.5899 224.031C77.5911 221.939 75.1274 222.711 73.4961 223.225C72.9036 223.413 72.3411 223.589 71.9361 223.608C71.5161 223.63 71.2011 223.495 71.0436 223.225C70.8674 222.925 70.9086 222.513 71.1524 222.119C71.5874 221.418 72.4236 220.833 73.2374 220.266C73.4736 220.101 73.7249 219.899 73.9911 219.685C74.3549 219.396 74.9286 218.695 75.4011 218.62C76.1174 218.5 76.2861 220.184 76.4774 220.634C76.8074 221.421 77.3249 222.1 78.1086 222.475C79.8861 223.326 81.7724 222.468 82.8036 220.341C82.8524 220.244 82.9049 220.131 82.9649 220.004C83.4411 218.995 83.9324 217.075 85.2711 217.581C86.3136 217.975 86.8161 219.299 87.8249 219.741C89.0361 220.27 90.2886 220.139 91.4286 219.483C92.9774 218.59 93.4461 216.88 92.5949 215.226C91.8149 213.704 91.6124 212.658 91.9236 211.72L91.9161 211.713ZM88.8299 216.213C88.7586 216.25 88.5374 216.284 88.4924 216.175C88.4549 216.085 88.4061 215.924 88.3686 215.808C88.1661 215.159 87.8286 214.075 86.7149 213.453C85.8411 212.965 84.8886 212.864 83.9549 213.164C81.7011 213.884 80.3136 216.816 79.5674 218.391C79.5674 218.395 79.5636 218.403 79.5599 218.406C79.5524 218.373 79.5449 218.339 79.5374 218.305C79.3049 217.319 78.9561 215.826 77.4074 215.046C75.1724 213.925 72.9636 215.695 71.6436 216.753C71.4261 216.925 71.2199 217.09 71.0849 217.188C70.0686 217.896 68.8049 218.781 67.9649 220.135C66.9861 221.714 66.9261 223.623 67.8111 225.123C68.6849 226.604 70.2974 227.433 72.1236 227.339C73.0049 227.294 73.8224 227.035 74.6136 226.788C76.1361 226.311 76.5599 226.278 76.8786 226.611C76.9799 226.716 77.1074 226.896 77.2424 227.091C77.6999 227.74 78.3899 228.719 79.6986 229.004C82.4474 229.6 83.9474 227.193 84.8399 225.749C85.1136 225.306 85.4886 224.703 85.7024 224.53C86.1524 224.159 86.7899 223.99 87.0936 224.163C87.2061 224.226 87.4424 224.421 87.7311 225.018C88.0836 225.745 88.8824 227.853 88.5074 228.636C88.1399 229.394 86.8986 229.109 86.2424 229.015C85.0836 228.843 83.9961 228.674 82.8561 229.068C82.2936 229.263 81.7761 229.518 81.3224 229.746C79.3874 230.71 79.2186 229.791 77.5799 228.85C76.0949 227.999 74.5011 228.018 73.1211 228.104C72.4611 228.145 71.7599 227.939 70.9461 227.699C70.0386 227.433 69.0074 227.129 67.8561 227.14C66.0786 227.159 65.5236 228.366 65.3961 228.738C64.8899 230.208 65.9886 231.576 66.6374 232.098C66.9824 232.364 67.3349 232.645 67.6124 232.971C66.8399 232.821 66.1311 232.446 65.3924 232.184C64.5224 231.876 63.2024 231.411 62.8124 230.965C62.6136 230.74 62.5799 230.208 62.7374 229.724C62.8799 229.281 63.4274 228.441 63.9111 227.703C65.2274 225.685 66.7161 223.398 66.1761 221.088C65.9924 220.296 65.4711 219.175 64.0386 218.328C63.4986 218.009 62.9586 217.9 62.4561 217.9C61.8899 217.9 61.3686 218.039 60.9411 218.181C61.1024 217.878 61.2936 217.596 61.4961 217.304C62.1674 216.333 63.0824 215.005 62.6361 212.748C62.4786 211.949 62.1074 211.199 61.7474 210.475C61.5336 210.04 60.8999 209.193 61.2374 208.701C61.4774 208.349 62.2686 208.266 62.6399 208.398C62.7561 208.439 62.9924 208.525 63.0674 209.043C63.1011 209.286 63.1349 209.646 63.1724 210.063C63.3824 212.38 63.7011 215.883 65.8536 217.349C66.5211 217.803 67.6386 218.253 69.1874 217.803C70.5936 217.394 71.5986 216.363 72.1611 215.035C72.5849 214.03 72.3036 212.208 73.2636 211.48C73.5974 211.225 76.5186 214.064 77.2799 214.345C80.3586 215.496 82.4399 213.599 83.8199 212.346C84.3149 211.896 84.7836 211.469 85.2374 211.191C85.7361 210.884 88.9386 208.829 88.3686 210.55C88.0011 211.66 87.9636 212.834 88.1774 213.978C88.2074 214.139 88.8899 216.201 88.8374 216.231L88.8299 216.213Z" fill="#FBDDDF"/>
<path d="M102.581 186.464C101.85 182.995 99.915 179.402 97.1138 177.179C94.1063 174.79 89.3963 174.362 87.2513 178.139C85.785 180.715 87.03 184.435 89.2238 185.556C89.4675 185.68 90.0638 185.796 90.2213 186.044C90.375 186.287 90.2138 187.232 90.2175 188.207C90.03 188.376 89.8275 188.541 89.6063 188.71C88.89 189.272 87.9938 189.899 86.9063 191.005C84.2025 193.754 83.9775 198.989 83.9775 202.36C83.9775 203.86 84.2063 206.729 84.4575 209.74C84.6938 209.511 84.945 209.312 85.2113 209.129C85.065 206.984 84.9525 204.719 84.9525 202.446C84.9525 196.401 85.9313 193.364 87.615 191.95C88.185 191.466 89.1488 191.009 90.0938 190.881C90.315 190.851 90.5363 190.84 90.7538 190.847C90.9488 191.369 91.1025 191.721 91.035 191.879C90.9113 192.175 88.9013 193.296 88.6613 196.086C88.4888 198.092 90.0788 200.507 91.8075 201.561C93.8138 202.784 96.4725 202.604 98.4675 201.456C102.848 198.936 103.5 190.799 102.581 186.456V186.464Z" fill="white"/>
<path d="M67.7249 207.374C67.7249 204.003 67.4999 198.768 64.7962 196.019C63.7049 194.909 62.8124 194.279 62.0962 193.724C61.8112 193.503 61.5562 193.293 61.3237 193.068C61.3087 192.186 61.1812 191.369 61.3237 191.148C61.4737 190.911 62.0474 190.799 62.2837 190.679C63.7499 189.929 64.7737 187.975 64.7962 186.018C64.8037 185.155 64.6162 184.289 64.1849 183.528C62.1149 179.886 57.5774 180.299 54.6787 182.601C51.9787 184.743 50.1112 188.208 49.4062 191.549C48.5249 195.734 49.1512 203.575 53.3737 206.005C55.2974 207.111 57.8624 207.284 59.7937 206.106C61.4624 205.09 62.9924 202.765 62.8274 200.83C62.5949 198.141 60.6562 197.061 60.5399 196.776C60.4799 196.634 60.6074 196.33 60.7762 195.88C61.0462 195.85 61.3312 195.858 61.6162 195.899C62.5649 196.026 63.5212 196.484 64.0987 196.968C65.7824 198.385 66.7612 201.423 66.7612 207.464C66.7612 210.873 66.5062 212.928 66.2699 214.611C66.4912 214.713 66.7237 214.784 66.9674 214.825C67.3012 212.223 67.7362 209.44 67.7362 207.374H67.7249Z" fill="white"/>
</svg>
