<svg width="33" height="33" viewBox="0 0 33 33" fill="none" xmlns="http://www.w3.org/2000/svg">
<path d="M16.2015 32.403C25.1493 32.403 32.403 25.1493 32.403 16.2015C32.403 7.25365 25.1493 0 16.2015 0C7.25365 0 0 7.25365 0 16.2015C0 25.1493 7.25365 32.403 16.2015 32.403Z" fill="#ECF1E8"/>
<path d="M21.8729 14.9795C21.6025 15.0241 20.8566 14.9522 20.2646 14.8631C20.2175 14.7381 20.1648 14.6159 20.1052 14.4966C20.8427 14.0884 21.4126 13.4329 21.5457 13.2058C21.6081 13.0994 21.1505 12.7516 21.0466 12.8709C20.7249 13.2446 20.3159 13.6356 19.71 13.8742C19.4161 13.5062 19.0473 13.2072 18.6064 13.0204C18.6092 12.96 18.6119 12.8982 18.6147 12.8335C19.4313 12.4842 20.2618 12.4224 20.8053 12.3563C20.8913 12.3462 20.9384 11.4507 20.8317 11.4306C20.0428 11.2854 19.2248 11.4694 18.5301 11.6563C18.4497 11.3472 18.3055 11.0166 18.0532 10.6673C18.0532 10.6544 18.0588 10.6415 18.0712 10.6256C18.2612 10.41 18.483 9.95151 18.508 9.82645C18.5218 9.75746 18.1322 9.46279 18.0948 9.54328C18.0574 9.62521 17.5666 10.3784 17.3031 10.272C17.0397 10.1657 17.3017 9.25149 17.3281 9.18537C17.3544 9.11925 16.7901 8.92807 16.7596 9.02869C16.7291 9.12931 16.5239 10.0679 16.2051 10.1197C15.9403 10.1614 15.4966 9.19974 15.4716 9.12644C15.4287 8.99994 14.8727 9.28024 14.9254 9.37942C14.9767 9.57634 15.0585 9.76321 15.1361 9.95151C15.1916 10.0866 15.2623 10.2289 15.29 10.3741C15.1458 10.4517 15.0169 10.5495 14.8852 10.6645C14.8685 10.6788 14.8505 10.6946 14.8339 10.7105C14.6924 10.8413 14.5732 10.9922 14.472 11.1546C14.1795 11.1101 13.8689 11.0971 13.5348 11.1402C13.4779 10.7047 13.3878 10.2462 13.2408 9.7862C13.2048 9.67265 11.9417 10.0536 11.9681 10.1973C12.072 10.745 12.1386 11.2365 12.1816 11.675C11.1792 12.3462 10.5109 13.3984 10.497 13.4372C10.4804 13.489 10.9449 13.8483 10.9865 13.7966C11.0128 13.7649 11.5147 13.0549 12.2384 12.4986C12.2662 13.177 12.2384 13.6931 12.2259 14.0797C12.1719 14.12 12.1178 14.1617 12.0665 14.2062C11.6547 14.5555 11.3871 15.0299 11.2263 15.5444C10.8977 15.4898 10.5775 15.4036 10.2641 15.303C10.1393 15.2627 9.94523 15.9512 10.0146 15.9714C10.3321 16.0634 10.7036 16.1539 11.0766 16.2215C11.0031 16.7591 11.0225 17.3038 11.1043 17.771C10.8242 17.85 10.5317 17.9032 10.2295 17.9248C10.1352 17.932 10.2627 18.6205 10.3847 18.6104C10.6717 18.586 10.9781 18.5328 11.2873 18.4581C11.7379 19.7345 12.6973 20.7824 13.9632 21.6735C14.7021 22.1939 14.9725 22.8666 15.6657 23.4358C16.1552 23.8383 16.7569 23.9676 17.0619 23.9734C17.335 24.0208 17.6886 24.0064 17.9977 23.9173C19.448 23.5364 19.7987 21.639 19.893 20.4086C19.9845 19.2285 20.3547 17.9205 20.4947 16.7404C20.5377 16.3753 20.528 15.9987 20.467 15.6264C21.0563 15.6609 21.6413 15.6594 21.8965 15.6178C21.999 15.6005 22.0767 14.9407 21.8701 14.9752L21.8729 14.9795ZM15.6158 13.1828C15.595 13.1627 15.5534 12.7516 15.6338 12.3405C15.8252 12.5316 15.8987 12.7573 15.8501 12.9787C15.8404 13.0218 15.8238 13.0664 15.803 13.1095C15.6782 13.1655 15.6338 13.2015 15.6158 13.1842V13.1828ZM16.3021 11.4996C16.7083 11.4306 16.9357 11.6548 17.0619 11.9351C16.7222 11.9021 16.3756 11.7756 16.0054 11.629C16.0886 11.5657 16.1857 11.5183 16.3021 11.4982V11.4996ZM13.8259 11.8431C13.9465 11.8403 14.0588 11.8431 14.1684 11.8489C14.1379 11.9552 14.1101 12.0616 14.0907 12.1709C14.0159 12.569 13.9951 12.9859 14.0339 13.4185C13.9299 13.4286 13.8259 13.4415 13.7219 13.4588C13.6762 13.0965 13.6429 12.5489 13.6027 11.8633C13.6776 11.8518 13.7524 11.846 13.8273 11.8446L13.8259 11.8431Z" fill="#91AC71"/>
</svg>
