<svg width="13" height="12" viewBox="0 0 13 12" fill="none" xmlns="http://www.w3.org/2000/svg">
    <path
        d="M10.4001 7.99988V7.33332H6.50014V4.66649H1.94999C1.43296 4.66649 0.936829 4.87734 0.571067 5.2522C0.205306 5.62705 0 6.13619 0 6.66675V8.00017H10.4001V7.99988ZM0.650181 7.33332V6.66647C0.65046 6.31304 0.787516 5.97419 1.03126 5.72419C1.27501 5.47419 1.6054 5.33362 1.94999 5.33334H5.84996V7.33332H0.650181ZM13 5.9999C13 7.28703 12.5966 8.54016 11.849 9.57415C11.1013 10.6079 10.0494 11.3678 8.84848 11.7416C7.64757 12.1153 6.36113 12.083 5.17972 11.6493C3.99803 11.2156 2.98376 10.4036 2.2865 9.33358H3.09713C3.79133 10.2233 4.74515 10.8616 5.81904 11.1547C6.89264 11.4478 8.02976 11.3807 9.06353 10.963C10.0973 10.5453 10.9734 9.79872 11.5634 8.8333C12.1534 7.8676 12.4264 6.73361 12.3426 5.59734C12.2584 4.46106 11.8219 3.38222 11.0965 2.5188C10.3711 1.65566 9.39559 1.0531 8.31223 0.799956C7.22888 0.546816 6.0951 0.656244 5.07665 1.11224C4.05848 1.56823 3.20912 2.34651 2.65365 3.33364H1.91544C2.50127 2.12137 3.46958 1.14795 4.66297 0.571673C5.85609 -0.00489252 7.20436 -0.150605 8.48857 0.158534C9.77277 0.467388 10.9174 1.21281 11.7364 2.27337C12.5554 3.33393 13.0006 4.64735 12.9997 6.00019L13 5.9999ZM9.10003 4.66649C9.27246 4.66649 9.43765 4.73677 9.55967 4.86192C9.68168 4.98706 9.74993 5.15648 9.74993 5.33334C9.74993 5.51019 9.6814 5.67962 9.55967 5.80476C9.43765 5.9299 9.27246 6.00019 9.10003 6.00019C8.92759 6.00019 8.7624 5.9299 8.64039 5.80476C8.51837 5.67962 8.45012 5.51019 8.45012 5.33334C8.45012 5.15648 8.51865 4.98706 8.64067 4.8622C8.76268 4.73734 8.92759 4.66677 9.10003 4.66677M9.10003 4.00021C8.75516 4.00021 8.4245 4.14078 8.18075 4.39078C7.937 4.64077 7.79994 4.97991 7.79994 5.33362C7.79994 5.68734 7.937 6.02647 8.18075 6.27647C8.4245 6.52647 8.75516 6.66704 9.10003 6.66704C9.4449 6.66704 9.77556 6.52675 10.0193 6.27647C10.2631 6.02647 10.4001 5.68734 10.4001 5.33362C10.4001 4.97991 10.2631 4.64077 10.0193 4.39078C9.77556 4.14078 9.4449 4.00021 9.10003 4.00021Z"
        fill="#66A3AF" />
</svg>