<svg width="17" height="17" viewBox="0 0 17 17" fill="none" xmlns="http://www.w3.org/2000/svg">
<path d="M15.4481 4.50017C15.4481 4.37375 15.488 4.30733 15.5216 4.27377C15.5551 4.24022 15.6215 4.20027 15.748 4.20027C15.8744 4.20027 15.941 4.24023 15.9746 4.27388C16.0083 4.3075 16.0482 4.3739 16.0482 4.50017V12.4998C16.0482 14.4639 14.5118 16 12.548 16H4.54802C4.4216 16 4.35518 15.9601 4.32163 15.9265C4.28807 15.8929 4.24813 15.8265 4.24813 15.7001C4.24813 15.5737 4.28807 15.5073 4.32163 15.4737C4.35518 15.4401 4.4216 15.4002 4.54802 15.4002H12.548C14.1843 15.4002 15.4481 14.1364 15.4481 12.5002V4.50017ZM12.8479 2.90003V10.9C12.8479 10.9001 12.8479 10.9003 12.8479 10.9004C12.8477 11.9842 12.0315 12.8001 10.9479 12.8001H2.94789C1.86389 12.8001 1.04785 11.984 1.04785 10.9V2.90003C1.04785 1.81604 1.86389 1 2.94789 1H10.9479C12.0319 1 12.8479 1.81604 12.8479 2.90003ZM8.24761 9.30024V8.2001H9.34775C9.70133 8.2001 10.0349 8.0801 10.2813 7.83371C10.5276 7.58732 10.6476 7.25379 10.6476 6.90021C10.6476 6.54662 10.5276 6.21309 10.2813 5.9667C10.0349 5.72031 9.70133 5.60031 9.34775 5.60031H8.24761V4.50017C8.24761 4.14659 8.12761 3.81306 7.88122 3.56667C7.63483 3.32028 7.3013 3.20027 6.94771 3.20027C6.59413 3.20027 6.2606 3.32028 6.01421 3.56667C5.76782 3.81306 5.64782 4.14659 5.64782 4.50017V5.60031H4.54768C4.1941 5.60031 3.86057 5.72031 3.61418 5.9667C3.36778 6.21309 3.24778 6.54662 3.24778 6.90021C3.24778 7.25379 3.36778 7.58732 3.61418 7.83371C3.86057 8.0801 4.1941 8.2001 4.54768 8.2001H5.64782V9.30024C5.64782 9.65382 5.76782 9.98735 6.01421 10.2337C6.2606 10.4801 6.59413 10.6001 6.94771 10.6001C7.3013 10.6001 7.63483 10.4801 7.88122 10.2337C8.12761 9.98735 8.24761 9.65382 8.24761 9.30024Z" fill="#888B88" stroke="#888B88"/>
</svg>
