<svg width="33" height="33" viewBox="0 0 33 33" fill="none" xmlns="http://www.w3.org/2000/svg">
<path d="M16.2015 32.403C25.1493 32.403 32.403 25.1493 32.403 16.2015C32.403 7.25365 25.1493 0 16.2015 0C7.25365 0 0 7.25365 0 16.2015C0 25.1493 7.25365 32.403 16.2015 32.403Z" fill="#ECF1E8"/>
<path d="M23.4953 11.4018C23.7519 11.8029 23.0424 12.3381 22.76 12.7538C22.4787 13.1707 21.9171 14.0641 21.4867 14.49C20.7907 15.1784 18.3304 16.4482 18.0457 16.2026C17.7599 15.9569 17.7128 14.6985 17.6041 14.0833C17.4954 13.4681 17.3967 13.1087 17.3867 12.8316C17.3732 12.4688 17.3923 11.8491 17.5929 11.5415C17.8664 11.1235 19.0175 11.0165 19.5914 11.0165C20.1652 11.0165 21.6425 11.3016 21.9821 11.3094C22.3229 11.3173 23.2005 10.9422 23.4941 11.4007L23.4953 11.4018Z" fill="#91AD70"/>
<path d="M17.1614 11.367C17.3553 11.4447 17.1793 11.8357 17.1132 12.3303C17.0448 12.8418 17.2936 13.733 17.4057 14.4337C17.4898 14.961 17.5615 15.7519 17.7083 16.2589C17.8552 16.7659 17.6064 18.0729 16.2826 19.0046C15.646 19.453 14.116 19.8812 13.3113 20.0389C13.1801 20.0648 13.0064 20.0874 12.8853 20.0536C12.8114 20.0322 12.7071 19.9195 12.6365 19.844C12.4415 19.6356 12.0929 19.5128 11.3408 19.8068C10.6504 20.0772 10.4991 20.5279 10.4968 20.8569C10.4968 21.0033 10.5226 21.107 10.4991 21.2061C10.471 21.3199 10.341 21.3887 10.2424 21.4506C9.67188 21.8112 8.60035 22.2415 8.16547 21.8359C7.74739 21.4461 8.36049 20.8242 8.40084 20.182C8.44007 19.5398 7.1298 14.6771 9.04645 12.5319C10.9631 10.3868 16.2759 11.0109 17.1625 11.367H17.1614Z" fill="#91AD70"/>
<path d="M12.0245 19.8541C11.5437 19.8541 10.9171 20.1775 10.768 20.5234C10.7636 20.5346 10.7591 20.5459 10.7546 20.5572C10.6033 20.9955 10.8611 21.2625 11.2534 21.2625C11.2769 21.2625 11.3016 21.2625 11.3262 21.2591C11.862 21.2163 12.5838 20.8467 12.6073 20.4434C12.632 20.0153 12.3641 19.853 12.0245 19.853V19.8541Z" fill="#91AD70"/>
</svg>
