<svg width="33" height="34" viewBox="0 0 33 34" fill="none" xmlns="http://www.w3.org/2000/svg">
<path d="M16.2015 33.0061C25.1493 33.0061 32.403 25.7524 32.403 16.8046C32.403 7.85674 25.1493 0.603096 16.2015 0.603096C7.25365 0.603096 0 7.85674 0 16.8046C0 25.7524 7.25365 33.0061 16.2015 33.0061Z" fill="#ECF1E8"/>
<path d="M23.0694 15.7781C22.1631 13.2811 19.8968 10.176 18.7122 10.3349C17.9177 10.4408 18.0162 11.2652 17.5403 11.9501C17.5037 12.0031 17.4627 12.062 17.4194 12.1269C17.3926 12.0978 17.3665 12.0687 17.3396 12.0411C17.3217 12.0225 17.2911 12.0255 17.2762 12.0463C17.1128 12.2694 17.0203 12.4515 16.9361 12.6648C16.9249 12.6939 16.9316 12.7267 16.954 12.7476C16.9741 12.7663 16.9972 12.7894 17.0211 12.8133C16.7212 13.4303 16.4728 14.2681 16.6324 15.2879C16.9465 17.2978 18.713 18.4676 19.0263 19.6837C19.3403 20.8997 18.2258 22.0845 18.7823 22.6283C19.1889 23.026 20.037 22.9805 20.9434 23.1722C21.8498 23.3639 23.1045 23.8616 23.6975 23.4788C24.2898 23.0961 23.9765 18.2744 23.0702 15.7773L23.0694 15.7781Z" fill="#91AC71"/>
<path d="M15.3108 12.8185C15.3495 12.7827 15.354 12.7238 15.3234 12.6812C15.1854 12.4917 15.0676 12.3179 14.9743 12.1403C14.9624 12.1172 14.9363 12.1098 14.9146 12.1195C14.9117 12.1142 14.9094 12.1083 14.9064 12.103C14.5282 11.4092 14.843 10.3998 13.8345 10.3364C12.632 10.2618 10.491 12.7969 9.41909 16.2668C8.34639 19.7366 8.34639 22.8902 8.788 23.2058C9.22961 23.5214 11.6898 22.8275 12.6357 22.7014C13.5816 22.5754 14.5909 22.5754 14.9064 22.1971C15.222 21.8189 15.407 18.637 15.4115 17.5917C15.4204 15.805 15.3473 14.0562 15.1578 12.9782C15.2153 12.9133 15.2675 12.8588 15.31 12.8193L15.3108 12.8185Z" fill="#91AC71"/>
</svg>
