<svg width="224" height="526" viewBox="0 0 224 526" fill="none" xmlns="http://www.w3.org/2000/svg">
<path d="M198.302 305.964C198.157 306.681 198.011 307.398 197.852 308.198H195.407C193.881 306.862 193.245 305.056 192.569 303.282C192.3 302.573 192.079 301.842 191.857 301.118C190.495 296.706 188.878 292.351 188.101 287.791C187.687 285.369 187.047 282.984 187.08 280.461C187.131 276.52 186.8 272.574 186.822 268.633C186.833 266.363 186.273 264.246 185.645 262.135C185.143 260.449 184.373 258.845 183.745 257.195C183.36 256.185 183.051 255.15 182.659 254.144C180.955 249.778 179.254 245.41 177.507 241.063C175.807 236.835 173.95 232.669 172.355 228.405C171.207 225.328 170.365 222.136 169.409 218.991C168.806 217 168.225 215.005 167.691 212.997C167.513 212.327 167.535 211.607 167.429 210.919C166.655 205.884 165.925 200.795 166.565 195.742C166.924 192.897 167.091 190.078 167.229 187.233C167.338 184.963 166.561 182.871 166.274 180.685C165.867 177.543 165.304 174.42 164.813 171.285C164.41 168.715 164.196 166.098 163.571 163.586C163.062 161.545 162.801 159.489 162.481 157.429C162.419 157.038 162.132 156.68 161.791 155.985C161.26 157.618 160.777 158.892 160.443 160.202C159.909 162.29 159.542 164.419 158.99 166.5C158.409 168.693 157.642 170.836 157.046 173.026C156.465 175.165 156.051 177.351 155.459 179.483C154.619 182.513 154.485 185.586 154.507 188.709C154.518 190.422 155.164 191.927 155.513 193.52C156.185 196.593 157.232 199.597 157.74 202.688C158.18 205.363 158.997 208.027 158.732 210.792C158.637 211.799 158.492 212.805 158.303 213.797C157.904 215.885 157.864 217.941 158.412 220.022C158.717 221.18 158.837 222.389 159.015 223.576C159.477 226.649 159.902 229.733 160.389 232.803C160.617 234.243 160.992 235.662 161.242 237.099C161.747 239.962 161.98 242.894 162.746 245.681C163.887 249.836 163.324 254.18 164.443 258.313C164.476 258.433 164.476 258.567 164.479 258.693C164.625 261.745 164.875 264.792 164.89 267.844C164.941 277.786 164.937 287.733 164.879 297.676C164.857 301.237 165.017 304.871 164.359 308.335C163.771 311.43 164.17 314.557 163.448 317.601C163.317 318.148 163.426 318.749 163.353 319.313C163.222 320.312 163.033 321.304 162.877 322.296C162.797 322.795 162.695 323.298 162.674 323.802C162.576 325.962 162.299 328.084 161.678 330.176C161.34 331.316 161.359 332.561 161.206 333.759C160.766 337.154 160.338 340.546 159.873 343.937C159.597 345.946 159.226 347.944 158.968 349.953C158.612 352.718 158.311 355.491 158.002 358.26C157.664 361.286 157.217 364.308 157.054 367.345C156.876 370.635 156.545 373.943 157.395 377.226C157.707 378.442 157.631 379.752 157.824 381.005C158.256 383.821 158.583 386.662 159.244 389.428C160.396 394.256 160.16 399.157 160.45 404.04C160.643 407.294 160.639 410.519 160.37 413.758C160.189 415.966 160.102 418.174 159.32 420.299C159.023 421.113 159.15 422.069 158.954 422.934C158.318 425.695 157.584 428.435 156.963 431.201C156.352 433.912 155.884 436.655 155.255 439.363C154.743 441.574 154.049 443.742 153.519 445.95C152.97 448.227 152.56 450.536 152.026 452.817C151.31 455.879 150.492 458.923 149.799 461.988C149.254 464.388 148.861 466.824 148.345 469.231C147.804 471.761 147.128 474.262 146.642 476.8C146.333 478.418 146.151 480.075 146.104 481.722C146.02 484.589 146.035 487.459 146.1 490.326C146.162 493.055 146.278 495.788 146.503 498.51C146.572 499.346 146.994 500.196 147.419 500.946C149.384 504.424 151.535 507.797 154.369 510.646C155.615 511.898 157.144 512.865 158.427 514.081C159.669 515.257 160.89 516.502 161.893 517.881C162.837 519.184 163.364 520.712 162.463 522.362C161.943 522.706 161.424 523.065 160.89 523.394C160.567 523.593 160.2 523.922 159.88 523.893C157.148 523.651 154.703 525.008 152.058 525.229C150.278 525.378 148.654 525.008 147.31 524.045C146.115 524.704 145.127 525.584 144.019 525.779C142.409 526.061 140.709 525.852 138.809 525.852C137.181 524.784 135.343 523.662 133.603 522.409C132.509 521.62 131.67 520.596 131.419 519.159C131.292 518.439 130.867 517.773 130.38 517.23C129.251 516.318 128.121 515.409 127.322 514.761C125.886 511.905 125.872 509.39 126.639 506.777C126.918 505.825 126.864 504.753 126.846 503.74C126.784 500.75 126.544 497.76 126.613 494.774C126.657 492.834 126.751 490.883 127.587 488.994C128.157 487.705 128.197 486.174 128.415 484.741C128.615 483.423 128.735 482.095 128.884 480.774C128.971 480.017 129.113 479.261 129.116 478.501C129.138 473.719 129.149 468.938 129.105 464.157C129.098 463.15 128.858 462.148 128.713 461.141C128.648 460.704 128.499 460.273 128.466 459.835C128.291 457.489 128.204 455.137 127.968 452.798C127.801 451.162 127.423 449.548 127.176 447.919C126.653 444.473 126.224 441.013 125.629 437.578C125.156 434.849 124.47 432.156 123.921 429.438C123.707 428.381 123.612 427.302 123.452 426.235C123.035 423.419 122.813 420.552 122.141 417.797C120.902 412.708 121.033 407.565 121.164 402.418C121.215 400.474 121.738 398.545 122.043 396.609C122.101 396.232 122.192 395.856 122.21 395.479C122.373 391.476 122.53 387.469 122.682 383.466C122.693 383.151 122.682 382.833 122.682 382.536C122.937 382.478 123.115 382.442 123.343 382.391C123.343 382.083 123.343 381.769 123.343 381.45C123.347 378.073 123.394 374.692 123.343 371.315C123.314 369.411 123.129 367.508 123.006 365.604C122.904 364.083 122.817 362.56 122.668 361.047C122.25 356.815 122.548 352.526 121.625 348.328C121.313 346.912 121.331 345.425 121.185 343.97C120.76 339.738 120.364 335.504 119.888 331.276C119.685 329.455 119.285 327.66 119.013 325.847C118.526 322.596 118.087 319.342 117.589 316.096C117.378 314.724 117.026 313.374 116.804 312.002C116.281 308.759 115.812 305.508 115.289 302.265C115.086 301.013 114.773 299.779 114.559 298.526C114.163 296.213 113.8 293.893 113.429 291.577C113.306 290.806 113.175 290.049 112.139 289.713C111.849 289.843 111.46 290.017 111.057 290.198C110.977 290.484 110.882 290.723 110.85 290.969C110.287 294.863 109.883 298.791 109.117 302.642C108.67 304.886 108.368 307.134 108.012 309.385C107.566 312.183 106.864 314.937 106.33 317.724C106.127 318.781 106.101 319.871 105.96 320.942C105.524 324.2 105.059 327.45 104.619 330.708C104.289 333.158 103.965 335.609 103.675 338.066C103.333 340.962 103.039 343.865 102.705 346.764C102.41 349.348 102.094 351.929 101.786 354.513C101.742 354.893 101.662 355.27 101.64 355.65C101.139 365.578 100.906 375.521 101.288 385.45C101.408 388.584 101.408 391.773 102.174 394.922C102.843 397.673 102.734 400.605 103.13 403.435C103.406 405.411 103.442 407.33 103.13 409.31C102.737 411.818 102.679 414.373 102.298 416.882C101.822 420.005 101.153 423.1 100.59 426.213C100.398 427.273 100.292 428.352 100.125 429.416C99.7038 432.098 99.2969 434.784 98.8319 437.459C98.2797 440.64 97.6476 443.807 97.1026 446.993C96.8665 448.368 96.7212 449.762 96.5831 451.152C96.3216 453.736 95.7657 456.273 95.7185 458.905C95.6386 463.284 95.1045 467.66 95.0936 472.04C95.0827 475.971 95.6858 479.902 95.704 483.832C95.7185 486.533 96.7793 488.878 97.3642 491.39C97.8111 493.319 97.564 495.422 97.5531 497.445C97.5422 499.603 97.3461 501.767 97.4296 503.921C97.5095 506.009 97.9455 508.087 98.04 510.175C98.1562 512.8 97.4405 515.091 94.8466 516.39C94.4506 516.589 94.1055 516.882 93.6841 517.168C93.2481 518.167 92.8194 519.217 92.329 520.238C92.0856 520.748 91.8313 521.345 91.3989 521.657C89.4008 523.097 87.6316 525.005 85.2375 525.7C83.6353 526.166 81.8225 525.928 80.2131 526C79.1014 525.309 78.135 524.704 77.0815 524.049C76.7872 524.179 76.4639 524.371 76.1188 524.473C75.1524 524.751 74.1788 525.2 73.2051 525.207C71.3087 525.218 69.4232 524.921 67.6249 524.234C67.2689 524.096 66.862 523.922 66.5133 523.977C64.7367 524.266 63.3235 523.499 61.7722 522.351C60.8931 521.36 60.9984 520.068 61.765 518.841C63.0111 516.839 64.4279 514.971 66.3861 513.56C69.99 510.964 72.7619 507.616 75.0688 503.863C75.3667 503.378 75.7155 502.922 76.0352 502.448C77.3467 500.49 78.0406 498.517 77.4993 496.005C77.1578 494.423 77.7064 492.61 78.0333 490.934C78.6364 487.828 78.6255 484.741 78.1714 481.628C77.8698 479.554 77.6882 477.458 77.3067 475.399C76.8381 472.847 76.2168 470.328 75.6755 467.791C75.5448 467.172 75.4866 466.535 75.3486 465.916C74.4476 461.912 73.543 457.909 72.6202 453.91C71.8791 450.699 71.1126 447.499 70.3533 444.292C69.5831 441.035 68.8819 437.763 68.0137 434.531C67.1091 431.179 66.288 427.82 65.7358 424.385C65.3144 421.764 64.5914 419.195 64.0683 416.592C63.8285 415.412 63.6069 414.2 63.6105 413.002C63.6251 408.93 63.7449 404.858 63.8249 400.786C63.8285 400.532 63.883 400.275 63.8721 400.022C63.7159 395.794 64.6641 391.675 65.1691 387.52C65.496 384.838 66.2771 382.214 66.8293 379.561C66.931 379.068 66.9419 378.547 66.9419 378.04C66.9456 373.259 66.9528 368.478 66.9238 363.7C66.9201 363.008 66.7458 362.317 66.6222 361.633C66.5314 361.134 66.3316 360.649 66.2916 360.145C66.1064 357.8 66.0192 355.447 65.7867 353.109C65.605 351.281 65.2453 349.475 64.9983 347.654C64.4788 343.814 64.0065 339.97 63.4652 336.137C63.2254 334.454 62.8004 332.8 62.5679 331.117C62.0665 327.479 61.6233 323.834 61.1765 320.193C60.9076 317.989 60.6424 315.784 60.4462 313.573C60.261 311.484 60.1847 309.389 60.0357 307.297C59.9485 306.03 59.8177 304.763 59.7087 303.5C59.5889 302.11 59.389 300.72 59.36 299.326C59.2074 291.877 59.0257 284.428 58.9967 276.976C58.9785 272.715 59.1347 268.444 59.3927 264.191C59.6034 260.644 60.1992 257.122 60.3954 253.575C60.5661 250.466 61.1837 247.433 61.6415 244.378C62.0738 241.508 62.8004 238.684 63.3599 235.832C63.556 234.837 63.6178 233.816 63.7668 232.81C64.2063 229.86 64.6495 226.91 65.1146 223.967C65.3216 222.657 65.5542 221.354 65.8339 220.058C66.6259 216.381 65.5868 212.722 65.7758 209.044C65.9102 206.438 66.0337 203.875 66.8257 201.342C67.5595 198.996 67.8102 196.491 68.6094 194.175C69.6557 191.145 69.7575 188.072 69.6812 184.952C69.623 182.527 68.9764 180.207 68.3515 177.883C67.614 175.136 66.8511 172.396 66.1427 169.642C65.2272 166.095 64.3771 162.529 63.4507 158.982C63.2182 158.088 62.8076 157.238 62.3753 156.09C61.369 158.53 61.26 160.846 60.8786 163.108C60.3227 166.417 59.6979 169.714 59.142 173.026C58.8986 174.467 58.7823 175.925 58.5535 177.366C58.1139 180.113 57.7651 182.886 57.1257 185.589C56.7188 187.309 56.6389 188.999 56.7879 190.704C56.9295 192.275 57.4599 193.82 57.5471 195.391C57.6997 198.117 57.6634 200.853 57.6561 203.586C57.6561 204.469 57.5253 205.359 57.4055 206.239C57.2529 207.361 57.0494 208.476 56.8823 209.598C56.6934 210.85 56.6135 212.124 56.3192 213.351C55.5817 216.417 54.906 219.515 53.9142 222.505C52.7626 225.973 51.2912 229.335 49.9797 232.748C49.0969 235.047 48.2686 237.371 47.3676 239.662C46.4412 242.022 45.4422 244.353 44.4976 246.705C43.4876 249.225 42.4959 251.755 41.5113 254.285C40.5232 256.818 39.535 259.348 38.5795 261.893C38.3579 262.479 38.238 263.109 38.1072 263.728C37.5441 266.457 36.9701 269.172 37.1046 272.006C37.2353 274.804 37.1445 277.616 37.1046 280.418C37.0755 282.771 36.774 285.08 36.1237 287.364C35.517 289.492 35.23 291.707 34.6887 293.857C34.3036 295.388 33.7477 296.876 33.2464 298.374C32.6288 300.231 32.0293 302.092 31.3463 303.923C30.9285 305.041 30.4236 306.135 29.875 307.199C29.2792 308.35 28.2184 308.476 26.7979 308.216C26.4855 307.713 26.0786 307.054 25.7116 306.464C25.0359 307.789 24.2839 309.179 23.6082 310.601C22.907 312.082 21.8426 313.07 19.9934 313.363C19.6701 313.131 19.2159 312.809 18.8236 312.53C18.2677 311.202 18.631 310.076 19.1651 308.954C19.4339 308.39 19.7391 307.821 19.8844 307.217C20.3167 305.451 20.6764 303.666 21.0651 301.889C20.9125 301.842 20.7599 301.791 20.6074 301.744C19.9207 303.326 19.3068 304.944 18.5329 306.486C17.454 308.632 16.3023 310.75 15.0853 312.82C14.6493 313.562 13.9191 314.134 13.3705 314.735H11.1944C9.85746 313.493 9.44331 312.291 10.3988 310.623C11.2089 309.208 11.7212 307.611 12.2661 306.059C13.0654 303.793 13.7883 301.505 14.5113 299.214C14.5948 298.953 14.464 298.628 14.3805 297.857C12.1208 301.998 10.0827 305.744 8.03372 309.486C7.11459 311.166 6.29718 312.165 3.97209 311.51C3.57247 310.898 3.03116 310.076 2.40993 309.135C5.7922 302.291 8.12455 295.182 9.47964 287.773C9.35975 287.711 9.24349 287.65 9.1236 287.588C8.43698 288.656 7.80848 289.763 7.05646 290.781C5.80309 292.482 4.37172 293.922 1.54529 293.166C1.38907 293.014 0.985814 292.616 0.662482 292.304C0.662482 291.62 0.557122 291.15 0.680642 290.752C1.21105 289.065 1.78869 287.393 2.39903 285.731C2.63517 285.094 2.95123 284.468 3.33269 283.903C4.5025 282.159 5.40348 280.309 5.99928 278.282C6.27538 277.334 6.75856 276.346 7.42339 275.633C10.5114 272.306 13.8973 269.349 18.3549 267.919C20.1714 264.908 20.8144 261.556 21.3158 258.161C21.6209 256.094 21.9406 254.024 22.1913 251.95C22.5619 248.866 22.7726 245.764 23.2376 242.695C23.7317 239.423 23.2667 236.064 24.1858 232.839C24.273 232.539 24.2803 232.209 24.2948 231.891C24.4619 228.076 24.5491 224.257 24.807 220.449C25.0214 217.286 25.4028 214.13 25.7661 210.977C26.035 208.646 26.2784 206.304 26.7361 204.006C27.2338 201.519 27.9386 199.072 28.6035 196.625C29.083 194.859 29.5517 193.078 30.1983 191.366C31.7351 187.28 31.7532 183.03 31.6842 178.777C31.6006 173.685 31.3245 168.596 31.3282 163.507C31.3282 160.796 31.528 158.077 32.2473 155.399C32.9884 152.652 33.3081 149.792 33.9802 147.023C34.5397 144.703 35.3389 142.437 36.0256 140.146C36.1346 139.781 36.2835 139.404 36.2762 139.035C36.1927 134.71 36.0837 130.384 35.9783 126.059C35.9493 124.911 35.9456 123.764 35.8548 122.62C35.7059 120.724 35.4952 118.831 35.3135 116.934C35.2772 116.554 35.1682 116.167 35.2191 115.801C35.5533 113.412 35.6913 110.965 36.3235 108.652C37.7985 103.23 39.891 98.0907 44.5448 94.4566C46.9753 92.5564 49.6891 91.2316 52.61 90.2543C55.1385 89.411 57.5871 88.3215 60.1374 87.5578C64.1627 86.3525 67.3089 83.5546 71.0472 81.8425C73.9354 80.5178 76.7654 79.0555 79.7008 77.8429C83.0395 76.4603 86.4981 75.3708 89.8404 73.999C92.2236 73.0181 93.7858 71.2662 93.9202 68.519C93.9493 67.8928 94.2072 67.2811 94.2907 66.6549C94.3961 65.8405 94.6286 64.9755 94.4688 64.2045C93.6913 60.48 93.7059 56.6252 92.5143 52.9731C92.0856 51.6592 91.8204 50.291 91.4861 48.9735C88.5543 47.2108 86.9631 44.63 86.4581 41.3218C86.3455 40.5725 86.0076 39.8522 85.8987 39.103C85.579 36.9204 86.1312 34.1587 87.33 31.7951C87.9731 31.6938 88.7142 31.578 89.5934 31.4404C89.4953 30.4632 89.379 29.475 89.3027 28.4833C89.0085 24.5742 89.3499 20.6976 90.4834 16.9659C92.042 11.8406 94.7122 7.31619 99.1407 4.1129C101.666 2.28503 104.507 1.1123 107.682 0.565753C109.382 0.27257 111.046 -0.0568223 112.757 0.00832946C116.837 0.167589 120.684 1.24259 124.128 3.42155C128.284 6.05296 130.958 9.86435 132.807 14.4033C135.012 19.8145 135.427 25.3415 134.653 31.0423C134.638 31.1545 134.718 31.2812 134.78 31.4947C135.408 31.5707 136.073 31.6504 136.756 31.7336C137 32.0992 137.21 32.4105 137.414 32.7254C137.585 32.9932 137.752 33.2647 138.031 33.7135C138.031 36.0879 138.395 38.6976 137.941 41.1589C137.363 44.2862 135.903 47.142 132.695 48.9264C132.179 51.3117 131.75 53.8707 131.056 56.3573C130.119 59.7054 129.937 63.1006 130.017 66.5319C130.053 68.11 130.25 69.6519 131.023 71.1142C131.866 72.6996 133.214 73.5176 134.787 74.1257C137.621 75.2224 140.473 76.2721 143.281 77.4267C146.1 78.5849 148.927 79.7468 151.659 81.0933C154.22 82.3565 156.701 83.8007 159.146 85.2811C161.122 86.4756 163.269 87.2212 165.406 88.0102C168.265 89.0635 171.146 90.0517 173.983 91.1592C179.178 93.1898 183.08 96.6356 185.441 101.743C186.64 104.334 187.418 107.031 188.137 109.8C189.14 113.673 188.954 117.564 188.558 121.346C188.159 125.161 188.202 128.965 187.886 132.762C187.694 135.061 187.429 137.326 188.003 139.589C188.377 141.051 188.845 142.488 189.27 143.939C189.906 146.126 190.618 148.29 191.149 150.502C192.25 155.095 192.802 159.742 192.707 164.491C192.573 171.245 192.638 178.003 192.62 184.761C192.613 187.211 193.514 189.473 194.124 191.793C194.72 194.052 195.468 196.271 196.082 198.522C196.649 200.596 197.154 202.688 197.637 204.784C197.866 205.772 198.033 206.778 198.142 207.788C198.484 210.941 198.669 214.115 199.127 217.25C199.722 221.347 199.054 225.538 200.148 229.589C200.198 229.77 200.195 229.969 200.206 230.157C200.358 232.951 200.522 235.745 200.649 238.54C200.732 240.378 200.812 242.188 201.216 244.023C201.688 246.177 201.583 248.446 201.822 250.658C202.048 252.728 202.353 254.795 202.694 256.851C202.974 258.534 203.283 260.217 203.708 261.871C204.129 263.522 204.649 265.158 205.255 266.75C205.455 267.275 205.982 267.862 206.498 268.053C210.618 269.595 213.76 272.415 216.681 275.553C217.793 276.748 218.327 278.242 218.77 279.755C219.188 281.182 219.867 282.423 220.743 283.625C221.4 284.526 221.818 285.619 222.239 286.669C222.665 287.718 222.955 288.826 223.322 289.901C223.845 291.425 223.689 292.377 222.788 293.017C221.938 293.622 220.325 293.607 219.34 292.894C217.771 291.758 216.652 290.223 215.697 288.562C215.384 288.019 215.075 287.472 214.527 286.984C214.792 288.138 215.064 289.289 215.319 290.444C216.281 294.776 217.549 299.015 219.126 303.163C219.62 304.462 220.358 305.668 220.834 306.971C221.153 307.839 221.306 308.799 221.357 309.725C221.408 310.63 220.855 311.303 219.994 311.607C219.101 311.922 218.167 311.922 217.513 311.151C216.863 310.384 216.281 309.537 215.795 308.657C214.109 305.61 212.485 302.526 210.814 299.471C210.621 299.116 210.269 298.848 209.706 298.675C209.778 299.21 209.76 299.779 209.942 300.275C211.21 303.713 212.467 307.163 213.84 310.561C214.676 312.632 214.654 313.138 212.925 314.72C211.014 315.263 209.848 314.058 209.019 312.7C207.668 310.493 206.527 308.151 205.368 305.831C204.776 304.643 204.329 303.387 203.835 302.207C203.443 302.917 203.388 303.442 204.18 306.732C204.547 308.252 205.324 309.675 205.96 311.253C205.971 312.476 204.972 312.936 203.937 313.428C203.374 313.185 202.796 312.936 202.422 312.776C200.129 310.912 199.635 308.219 198.306 306.015C198.266 305.78 198.229 305.545 198.189 305.313C198.113 305.338 198.037 305.367 197.961 305.393C198.08 305.595 198.204 305.798 198.324 306.001L198.302 305.964Z" fill="#B1C59E"/>
<path d="M144.049 180.36C143.06 177.557 140.906 175.696 137.976 175.121C134.665 174.467 133.061 175.335 131.769 176.031C131.031 176.433 130.487 176.643 129.738 176.609C126.194 176.448 123.261 175.531 121.02 173.881C120.814 173.731 120.616 173.573 120.425 173.411C119.038 174.471 117.57 175.429 116.176 176.542C118.731 178.868 122.125 180.12 124.463 180.984C125.411 181.33 126.157 181.608 126.599 181.86C127.621 182.442 128.427 182.905 128.502 183.42C128.76 185.175 126.587 188.625 123.058 190.778C120.893 192.097 118.937 192.112 117.214 192.124C116.019 192.131 114.887 192.135 113.857 192.582C113.224 192.853 112.793 193.127 112.475 193.326C112.385 193.387 112.28 193.454 112.19 193.499C112.153 193.435 112.104 193.364 112.074 193.315C111.654 192.657 110.95 191.556 109.433 191.135C107.177 190.511 101.325 189.944 95.7434 198.175C89.8054 206.924 94.2223 212.836 95.1664 213.929C96.9684 216.015 100.426 216.936 102.408 216.463C103.603 216.177 104.502 216.38 105.551 216.613C106.136 216.744 106.747 216.88 107.462 216.947C109.062 217.098 110.669 217.045 112.254 216.786C113.857 216.523 115.326 215.914 116.847 215.358C117.334 215.181 117.963 215.034 118.304 215.429C118.514 215.666 118.518 216.034 118.402 216.327C118.282 216.624 118.064 216.865 117.847 217.098C116.869 218.165 115.689 219.184 114.925 220.465C113.835 222.292 113.883 224.697 114.891 226.546C116.079 228.73 118.476 229.305 120.743 229.662C122.747 229.977 125.396 230.752 125.786 233.082C126.778 232.969 127.812 233.052 128.82 233.469C129.318 233.676 129.712 233.924 130.027 234.194C129.925 232.529 129.858 230.763 128.876 229.354C127.505 227.392 125.508 226.17 123.144 225.858C122.14 225.727 121.11 225.678 120.185 225.268C119.147 224.81 118.413 223.927 118.911 222.754C119.256 221.935 120.035 221.341 120.608 220.691C121.267 219.939 121.987 219.24 122.59 218.432C125.145 215.001 121.953 210.731 118.087 210.851C116.461 210.904 114.768 211.344 113.198 211.772C112.404 211.99 111.579 212.208 110.763 212.351C108.605 212.719 106.986 212.7 105.51 212.298C105.214 212.216 104.87 211.851 104.472 211.43C104.128 211.062 103.734 210.645 103.232 210.273C103.068 210.149 102.903 210.036 102.738 209.931C101.745 209.265 100.883 208.69 101.524 205.631C101.959 203.56 103.716 201.042 105.611 199.768C106.799 198.971 107.619 198.81 108.346 198.667C108.71 198.596 109.047 198.528 109.399 198.393C109.676 198.284 109.893 198.28 109.957 198.302C109.961 198.385 109.953 198.55 109.95 198.644C109.905 199.783 109.815 202.155 112.37 204.549C113.917 205.999 117.974 208.367 123.365 208.033C128.629 207.709 133.477 204.925 137.785 199.757C143.551 192.838 145.892 185.588 144.053 180.368L144.049 180.36Z" fill="#D5DFCD"/>
<path d="M145.949 127.451C141.397 114.872 130.015 99.2295 124.062 100.03C120.072 100.564 120.567 104.717 118.177 108.167C117.993 108.434 117.787 108.73 117.57 109.057C117.435 108.911 117.304 108.764 117.169 108.625C117.079 108.531 116.925 108.546 116.851 108.652C116.03 109.775 115.566 110.692 115.142 111.767C115.086 111.914 115.12 112.079 115.232 112.184C115.333 112.278 115.449 112.395 115.569 112.515C114.063 115.623 112.816 119.844 113.617 124.981C115.195 135.106 124.066 140.999 125.64 147.125C127.217 153.251 121.62 159.22 124.415 161.959C126.456 163.963 130.716 163.733 135.268 164.699C139.82 165.665 146.121 168.172 149.099 166.244C152.074 164.316 150.501 140.026 145.949 127.447V127.451Z" fill="#D5DFCD"/>
<path d="M106.983 112.542C107.177 112.361 107.2 112.064 107.046 111.85C106.353 110.895 105.761 110.02 105.293 109.125C105.233 109.009 105.102 108.971 104.993 109.02C104.978 108.994 104.967 108.964 104.952 108.937C103.053 105.442 104.634 100.357 99.5685 100.038C93.5256 99.6618 82.7772 112.433 77.3937 129.912C72.0064 147.392 72.0064 163.279 74.2242 164.868C76.4421 166.458 88.7977 162.963 93.5481 162.328C98.2985 161.693 103.367 161.693 104.952 159.787C106.537 157.882 107.466 141.853 107.488 136.587C107.533 127.586 107.166 118.777 106.215 113.346C106.503 113.019 106.765 112.744 106.979 112.545L106.983 112.542Z" fill="#D5DFCD"/>
<path d="M131.915 163.797C132.773 165.135 130.401 166.92 129.457 168.307C128.517 169.698 126.64 172.678 125.201 174.099C122.875 176.395 114.652 180.631 113.7 179.811C112.745 178.992 112.587 174.794 112.224 172.742C111.86 170.69 111.531 169.491 111.497 168.566C111.452 167.356 111.516 165.289 112.186 164.263C113.101 162.869 116.948 162.512 118.866 162.512C120.784 162.512 125.722 163.463 126.857 163.489C127.996 163.515 130.93 162.264 131.911 163.793L131.915 163.797Z" fill="#ECF1E8"/>
<path d="M110.744 163.681C111.392 163.94 110.804 165.244 110.583 166.894C110.354 168.6 111.186 171.573 111.561 173.911C111.842 175.67 112.082 178.308 112.572 179.999C113.063 181.69 112.231 186.05 107.807 189.158C105.679 190.654 100.565 192.082 97.8753 192.608C97.4369 192.695 96.8563 192.77 96.4516 192.657C96.2044 192.586 95.856 192.21 95.6199 191.958C94.9681 191.263 93.803 190.853 91.2891 191.834C88.9814 192.736 88.4756 194.239 88.4681 195.337C88.4681 195.825 88.5543 196.171 88.4756 196.502C88.3819 196.882 87.9474 197.111 87.6177 197.317C85.7108 198.52 82.1292 199.956 80.6756 198.603C79.2782 197.302 81.3275 195.228 81.4624 193.086C81.5935 190.943 77.214 174.723 83.6203 167.567C90.0266 160.411 107.784 162.493 110.748 163.681H110.744Z" fill="#ECF1E8"/>
<path d="M93.5745 191.992C91.9673 191.992 89.8731 193.071 89.3748 194.224C89.3598 194.262 89.3448 194.3 89.3298 194.337C88.8241 195.799 89.6857 196.69 90.997 196.69C91.0756 196.69 91.1581 196.69 91.2405 196.679C93.0313 196.536 95.4439 195.303 95.5226 193.958C95.605 192.529 94.7096 191.988 93.5745 191.988V191.992Z" fill="#ECF1E8"/>
<path d="M146.968 230.65C147.474 230.192 148.328 229.432 148.564 226.813C148.837 223.769 146.964 222.874 146.166 222.495C146.106 222.468 146.039 222.434 145.99 222.408C146.009 222.386 146.035 222.359 146.057 222.34C146.413 221.968 147.088 221.288 147.249 219.432C147.489 216.669 144.634 213.644 142.112 212.986C139.895 212.407 138.01 213.82 137.201 214.425C137.062 214.531 136.931 214.632 136.879 214.658C136.77 214.711 136.463 214.696 136.163 214.681C135.553 214.655 134.721 214.617 133.923 214.982C133.47 215.188 133.106 215.707 132.806 216.124C132.668 216.32 132.484 216.586 132.409 216.624C132.334 216.647 132.031 216.684 131.739 216.714C130.941 216.801 129.731 216.936 128.783 217.286C127.325 217.823 126.681 218.526 126.291 218.95C126.16 219.097 126.025 219.244 125.958 219.259C125.849 219.277 125.407 219.176 125.014 219.09C123.957 218.845 122.362 218.477 120.927 218.706C120.271 218.808 119.698 219.037 119.203 219.304C118.979 219.428 118.772 219.559 118.578 219.691C118.248 219.916 117.963 220.146 117.727 220.337C117.465 220.555 117.188 220.773 117.072 220.8C116.974 220.818 116.719 220.706 116.476 220.593C115.985 220.364 115.315 220.059 114.412 220.037C114.254 220.029 114.09 220.037 113.921 220.052C113.737 220.063 113.539 220.089 113.34 220.134C112.572 220.296 111.89 220.698 111.336 221.021C110.973 221.236 110.605 221.45 110.429 221.45C110.291 221.45 110.021 221.273 109.759 221.104C109.242 220.762 108.53 220.296 107.593 220.24C106.308 220.164 105.522 220.709 104.945 221.108C104.675 221.292 104.443 221.45 104.285 221.45C104.177 221.45 104.068 221.318 103.888 221.081C103.532 220.615 102.993 219.913 101.58 219.691C100.565 219.529 99.5273 219.943 98.9129 220.191C98.778 220.243 98.6207 220.303 98.527 220.334C98.4633 220.243 98.3584 220.044 98.2648 219.871C97.8452 219.075 97.1409 217.748 95.7397 216.97C94.3985 216.222 93.1135 216.244 92.2668 216.263C91.9559 216.271 91.57 216.278 91.4913 216.214C91.4052 216.151 91.289 215.921 91.1691 215.681C90.8207 214.985 90.2962 213.941 88.9288 213.215C87.434 212.422 85.7931 212.994 84.8153 213.332C84.5568 213.422 84.2908 213.512 84.1971 213.512C84.1035 213.512 83.8712 213.437 83.6239 213.358C82.7098 213.065 81.0089 212.524 79.2556 213.313C77.6372 214.046 77.4386 215.256 77.3075 216.057C77.2513 216.384 77.2101 216.665 77.0902 216.782C76.9966 216.876 76.7755 216.974 76.5245 217.09C75.5692 217.522 73.9657 218.248 73.6136 221.014C73.2839 223.584 74.5951 224.336 75.3032 224.742C75.4605 224.828 75.6741 224.956 75.6966 225.009C75.6966 225.197 75.5767 225.415 75.4231 225.685C75.1533 226.17 74.7825 226.832 74.7113 227.963C74.6326 229.188 75.2995 229.609 75.7415 229.887C76.03 230.064 76.1386 230.146 76.1386 230.289C76.1386 230.515 75.8839 230.883 75.6104 231.274C75.1234 231.988 74.449 232.965 74.3816 234.239C74.3029 235.641 74.9435 236.675 75.3669 237.359C75.5242 237.607 75.6966 237.892 75.6966 238.001C75.6966 238.118 75.5654 238.347 75.4306 238.588C75.1009 239.166 74.6026 240.042 74.6026 241.414C74.6026 242.932 75.6216 243.917 76.1724 244.447C76.2623 244.537 76.3709 244.642 76.4346 244.714C76.3634 244.789 76.2398 244.909 76.1274 245.014C75.4605 245.653 74.2093 246.841 74.3816 248.487C74.5352 249.93 75.6291 250.78 76.3522 251.343C76.562 251.505 76.8392 251.723 76.9029 251.806C76.8055 251.888 76.5395 252.042 76.3035 252.178C74.8799 252.989 71.5493 254.887 71.6392 259.484C71.6917 262.137 72.7407 264.542 74.5951 266.253C76.517 268.03 79.1882 268.947 81.9081 268.771C84.9764 268.575 86.1977 266.437 87.0856 264.873C87.4115 264.298 87.6962 263.806 87.9997 263.524C88.2207 263.321 88.4942 263.126 88.8164 262.896C90.2176 261.897 92.132 260.521 92.3642 256.845C92.5253 254.361 90.3861 252.971 89.1124 252.133C88.7227 251.881 88.2395 251.565 88.1945 251.426C88.1945 251.291 88.2582 251.107 88.3369 250.877C88.5279 250.317 88.8202 249.468 88.7415 248.002C88.6666 246.551 88.0409 245.747 87.6288 245.217C87.4752 245.014 87.3141 244.811 87.3141 244.717C87.3291 244.608 87.6325 244.308 87.8498 244.09C88.468 243.47 89.4008 242.538 89.4008 241.297C89.4008 240.057 88.5991 238.862 88.0709 238.099C87.8723 237.81 87.6625 237.513 87.64 237.392C87.6325 237.25 87.9622 236.761 88.202 236.404C88.7677 235.566 89.472 234.514 89.4008 233.567C89.3184 232.514 88.5954 231.789 88.157 231.349C88.0521 231.244 87.9173 231.109 87.8686 231.037C87.9023 230.966 88.0222 230.823 88.1121 230.718C88.3893 230.387 88.7714 229.932 88.8464 229.323C88.8988 228.914 88.7752 228.538 88.6216 228.226C88.6441 228.245 88.6703 228.267 88.6928 228.286C89.4083 228.854 90.4835 229.714 91.6637 230.199C92.9412 230.729 94.0988 230.44 94.9492 230.225C95.3314 230.131 95.691 230.041 95.8521 230.094C96.0244 230.15 96.2717 230.349 96.5564 230.582C97.2195 231.12 98.1262 231.853 99.5161 232.086C100.745 232.292 102.015 231.969 102.944 231.732C103.465 231.597 104.004 231.462 104.199 231.526C104.326 231.571 104.484 231.811 104.649 232.067C105.083 232.736 105.743 233.747 107.436 233.961C108.492 234.096 109.5 233.529 110.167 233.153C110.396 233.025 110.673 232.867 110.755 232.86C110.856 232.871 111.22 233.078 111.508 233.243C112.321 233.706 113.558 234.408 114.711 234.408C115.865 234.408 116.843 233.604 117.671 232.958C118.042 232.668 118.495 232.315 118.66 232.315C118.802 232.315 119.173 232.401 119.608 232.503C121.013 232.834 123.358 233.386 125.52 232.969C127.666 232.556 129.127 231.146 129.914 230.387C130.072 230.237 130.244 230.068 130.33 230.007C130.442 230.041 130.705 230.177 130.9 230.274C131.424 230.545 132.076 230.883 132.604 230.883C133.031 230.883 133.533 230.639 133.972 230.425C134.144 230.342 134.38 230.229 134.534 230.177C134.477 230.312 134.369 230.507 134.283 230.665C134.005 231.176 133.653 231.811 133.653 232.488C133.653 233.345 134.129 234.63 134.44 235.476C134.53 235.72 134.612 235.938 134.646 236.051C134.608 236.209 134.283 236.705 134.002 237.148C133.207 238.373 132.117 240.053 132.117 241.41C132.117 242.662 132.821 244.067 133.331 245.097C133.601 245.638 133.908 246.251 133.878 246.431C133.844 246.638 133.612 246.942 133.368 247.269C132.96 247.811 132.451 248.483 132.451 249.227C132.451 249.972 132.851 250.381 133.174 250.734C133.406 250.983 133.548 251.144 133.548 251.317C133.548 251.527 133.278 252.091 133.035 252.591C132.574 253.546 132.053 254.621 132.128 255.417C132.192 256.116 132.604 257.067 132.968 257.902C133.177 258.379 133.462 259.033 133.451 259.183C133.428 259.255 133.245 259.476 133.102 259.649C132.548 260.311 131.623 261.423 131.799 262.806C131.93 263.84 132.312 264.561 132.57 265.039C132.687 265.257 132.848 265.553 132.825 265.61C132.743 265.677 132.319 265.678 131.949 265.674C131.177 265.67 130.019 265.666 128.592 266.042C127.906 266.219 127.363 266.632 126.917 266.967C126.576 267.222 126.25 267.466 126.025 267.466C125.846 267.466 125.381 267.218 124.928 266.978C123.98 266.471 122.684 265.775 121.316 265.704C119.848 265.625 118.937 266.076 118.211 266.433C117.877 266.602 117.585 266.745 117.293 266.813C116.899 266.899 116.045 266.7 115.142 266.486C114.003 266.219 112.591 265.888 111.306 265.926C108.002 266.027 105.746 268.921 105.121 273.867C104.596 278.001 105.533 280.019 106.218 281.496C106.548 282.207 106.837 282.823 106.878 283.499C106.911 284.048 106.69 284.777 106.428 285.619C105.949 287.171 105.353 289.114 106.012 291.163C107.039 294.365 108.545 296.214 109.444 297.319C109.762 297.71 110.122 298.153 110.115 298.281C110.055 298.461 110.006 298.619 110.152 298.743C110.298 298.867 110.459 298.777 110.515 298.751C110.587 298.706 110.699 298.642 110.916 298.649C111.31 298.66 111.508 298.653 111.669 298.645C111.819 298.642 111.917 298.638 112.111 298.653C112.141 298.66 112.19 298.675 112.243 298.698C112.381 298.754 112.553 298.814 112.711 298.814C112.819 298.814 112.924 298.784 113.011 298.702C113.213 298.51 113.108 298.202 113.078 298.104C113.048 297.965 113.486 297.458 113.812 297.089C114.543 296.255 115.648 294.996 116.18 293.256C117.105 290.249 117.139 287.329 117.162 285.401C117.173 284.469 117.18 283.732 117.281 283.327C117.574 282.158 118.042 281.346 118.45 280.628L118.57 280.418C118.866 279.903 118.859 279.422 118.847 279.106V279.057C119.248 279.459 120.054 280.207 121.818 280.44C123.684 280.681 125.145 280.008 126.014 279.602C126.288 279.474 126.576 279.343 126.67 279.343C126.779 279.361 127.082 279.681 127.307 279.914C127.959 280.59 128.951 281.624 130.206 281.541C131.469 281.462 132.215 280.654 132.709 280.117C132.893 279.914 133.102 279.688 133.204 279.662C133.32 279.647 133.698 279.805 134.013 279.929C135.009 280.324 136.68 280.989 138.291 280.421C139.973 279.835 140.794 278.178 141.285 277.189C141.419 276.922 141.584 276.592 141.655 276.531C141.73 276.475 141.97 276.385 142.225 276.291C143.236 275.915 145.11 275.224 146.327 273.382C147.556 271.537 146.949 269.105 146.623 267.797C146.552 267.519 146.473 267.203 146.477 267.132C146.492 267.072 146.642 266.903 146.765 266.764C147.29 266.166 148.268 265.05 148.354 263.002C148.429 261.126 147.522 259.999 146.919 259.247C146.706 258.984 146.488 258.706 146.488 258.586C146.488 258.424 146.679 258.157 146.885 257.871C147.316 257.263 147.916 256.432 147.916 255.169C147.916 253.906 147.309 252.959 146.87 252.249C146.698 251.971 146.462 251.588 146.481 251.479C146.507 251.343 146.672 251.122 146.852 250.885C147.252 250.336 147.807 249.588 147.807 248.562C147.807 247.536 146.983 246.969 146.44 246.623C146.301 246.533 146.117 246.416 146.057 246.349C146.099 246.247 146.267 246.01 146.413 245.8C147.016 244.943 148.137 243.346 148.137 241.297C148.137 239.249 147.252 237.723 146.78 236.9C146.646 236.671 146.496 236.412 146.488 236.344C146.496 236.242 146.717 235.931 146.889 235.679C147.339 235.029 147.949 234.142 148.024 233.168C148.099 232.161 147.518 231.71 147.091 231.379C146.852 231.195 146.706 231.067 146.706 230.947C146.706 230.872 146.78 230.793 146.972 230.624L146.968 230.65Z" fill="#ECF1E8"/>
<path d="M108.537 249.731C108.815 249.536 109.111 249.299 109.422 249.047C109.849 248.705 110.523 247.882 111.074 247.792C111.913 247.653 112.112 249.63 112.336 250.163C112.722 251.088 113.329 251.888 114.251 252.328C116.334 253.328 118.548 252.32 119.758 249.817C119.814 249.701 119.878 249.569 119.945 249.423C120.503 248.235 121.08 245.976 122.646 246.574C123.868 247.036 124.46 248.596 125.643 249.115C127.067 249.739 128.536 249.584 129.873 248.81C131.686 247.762 132.237 245.751 131.241 243.8C130.326 242.011 130.09 240.775 130.454 239.674C130.506 239.516 130.577 239.332 130.652 239.136C130.922 238.445 131.259 237.584 131.211 236.618C131.169 235.791 130.802 234.281 128.817 233.458C125.501 232.086 121.867 234.329 120.312 235.288C119.424 235.833 118.664 236.532 117.993 237.144C116.334 238.659 115.787 238.99 114.816 238.625C114.206 238.396 113.61 237.975 113.187 237.471C113.086 237.351 112.973 237.197 112.853 237.028C112.291 236.246 111.351 234.938 109.493 234.724C106.597 234.386 103.974 237.223 103.645 239.892C103.427 241.647 103.116 242.429 102.566 242.59C102.446 242.624 102.375 242.632 102.337 242.635C102.255 242.56 101.918 242.184 101.614 240.933C101.333 239.771 101.21 238.411 101.108 237.317C101.06 236.765 101.015 236.288 100.959 235.885C100.663 233.837 99.4375 232.281 97.6018 231.616C95.5525 230.876 93.0949 231.424 91.3416 233.018C88.7603 235.359 90.3001 238.482 91.128 240.159C91.409 240.726 91.7237 241.369 91.7986 241.733C91.9635 242.564 91.7911 242.812 91.1542 243.737C90.7759 244.285 90.3038 244.969 89.9217 245.867C89.341 247.228 89.3335 248.694 89.9029 249.885C90.7384 251.633 92.1208 251.971 92.8701 252.02C93.758 252.076 94.541 251.798 95.1704 251.573C95.3352 251.512 95.5637 251.43 95.7286 251.385C95.8747 251.497 95.9609 251.603 95.9833 251.7C96.1894 252.587 94.7732 254.771 93.9228 256.075C93.1361 257.285 92.3943 258.428 92.0459 259.51C91.3753 261.6 91.7499 263.795 93.0274 265.242C94.2413 266.617 96.1744 267.305 97.879 267.906C98.3923 268.087 98.8755 268.259 99.2389 268.417C100.46 268.951 101.629 269.214 102.682 269.214C104.24 269.214 105.537 268.639 106.346 267.515C107.222 266.301 107.252 264.599 106.425 263.186C106.425 263.186 106.421 263.178 106.417 263.174C107.118 263.317 107.871 263.4 108.676 263.351C110.283 263.253 111.347 263.468 112.685 264.377C113.824 265.151 114.88 266.065 116.345 265.997C117.791 265.929 118.956 265.347 119.986 264.832C120.44 264.606 120.871 264.392 121.26 264.257C122.114 263.96 123.092 263.96 123.943 264.257C124.051 264.294 124.16 264.336 124.269 264.377C125.13 264.697 126.573 265.234 128.064 264.527C129.191 263.994 129.956 262.938 130.338 261.382C130.993 258.71 130.694 255.876 129.491 253.403C128.824 252.027 127.989 251.073 126.943 250.486C124.98 249.381 122.335 249.735 120.369 251.366C119.567 252.031 118.986 252.967 118.424 253.873C118.094 254.406 117.506 255.35 117.132 255.654C117.034 255.53 116.918 255.365 116.832 255.241C116.6 254.91 116.334 254.534 115.989 254.17C113.644 251.708 110.755 252.617 108.845 253.219C108.148 253.437 107.492 253.643 107.013 253.67C106.522 253.696 106.151 253.534 105.964 253.219C105.758 252.869 105.806 252.381 106.095 251.915C106.604 251.092 107.586 250.4 108.537 249.735V249.731ZM102.363 249.588C101.217 251.445 101.146 253.692 102.184 255.455C103.21 257.199 105.098 258.172 107.241 258.063C108.275 258.011 109.234 257.706 110.16 257.417C111.947 256.853 112.441 256.815 112.816 257.206C112.932 257.33 113.082 257.545 113.243 257.77C113.779 258.533 114.588 259.687 116.124 260.021C119.346 260.724 121.107 257.887 122.156 256.195C122.478 255.677 122.92 254.966 123.167 254.76C123.695 254.324 124.441 254.124 124.801 254.327C124.935 254.403 125.209 254.632 125.546 255.331C125.962 256.184 126.898 258.668 126.456 259.589C126.026 260.484 124.568 260.145 123.8 260.033C122.44 259.83 121.167 259.63 119.829 260.093C119.17 260.322 118.563 260.623 118.031 260.889C115.764 262.021 115.562 260.942 113.64 259.837C111.898 258.834 110.029 258.856 108.41 258.958C107.635 259.007 106.814 258.762 105.859 258.48C104.795 258.165 103.585 257.811 102.232 257.823C100.149 257.845 99.4974 259.266 99.3476 259.702C98.7519 261.431 100.041 263.043 100.805 263.652C101.21 263.964 101.622 264.298 101.951 264.678C101.045 264.501 100.213 264.058 99.3476 263.753C98.3248 263.392 96.7813 262.844 96.3205 262.321C96.0882 262.058 96.0508 261.431 96.2306 260.859C96.3954 260.341 97.0398 259.352 97.6055 258.48C99.149 256.105 100.899 253.418 100.262 250.697C100.044 249.765 99.4338 248.446 97.7516 247.45C97.1185 247.074 96.4853 246.946 95.8934 246.946C95.2303 246.946 94.6159 247.111 94.1176 247.277C94.305 246.92 94.5335 246.589 94.7695 246.243C95.5562 245.101 96.6315 243.537 96.107 240.88C95.9234 239.941 95.4851 239.061 95.0655 238.208C94.8145 237.697 94.0727 236.701 94.466 236.122C94.7508 235.709 95.6761 235.607 96.1145 235.765C96.2493 235.814 96.5266 235.915 96.6127 236.521C96.6539 236.806 96.6914 237.227 96.7364 237.719C96.9836 240.448 97.3583 244.567 99.8796 246.292C100.663 246.826 101.974 247.352 103.791 246.826C105.443 246.345 106.619 245.131 107.275 243.567C107.773 242.384 107.444 240.241 108.567 239.384C108.957 239.087 112.385 242.425 113.277 242.756C116.888 244.109 119.331 241.88 120.945 240.403C121.526 239.873 122.073 239.373 122.609 239.042C123.197 238.682 126.951 236.261 126.28 238.291C125.85 239.595 125.805 240.978 126.056 242.323C126.093 242.515 126.895 244.939 126.831 244.973C126.749 245.014 126.486 245.056 126.438 244.932C126.396 244.826 126.337 244.635 126.295 244.499C126.059 243.737 125.662 242.462 124.355 241.73C123.332 241.155 122.212 241.038 121.118 241.388C118.477 242.237 116.847 245.687 115.97 247.54C115.97 247.547 115.967 247.551 115.963 247.559C115.952 247.517 115.944 247.48 115.937 247.442C115.667 246.281 115.255 244.526 113.438 243.609C110.815 242.29 108.227 244.372 106.676 245.616C106.421 245.819 106.181 246.014 106.02 246.127C104.829 246.961 103.345 248.002 102.363 249.596V249.588Z" fill="#ECF1E8"/>
<path d="M134.541 143.405C133.811 143.521 131.795 143.333 130.195 143.1C130.068 142.773 129.926 142.454 129.764 142.142C131.758 141.075 133.297 139.361 133.657 138.767C133.826 138.489 132.589 137.579 132.308 137.891C131.439 138.868 130.334 139.891 128.697 140.515C127.903 139.552 126.906 138.771 125.715 138.282C125.722 138.124 125.73 137.963 125.737 137.794C127.944 136.88 130.188 136.719 131.656 136.546C131.889 136.519 132.016 134.178 131.728 134.125C129.596 133.746 127.386 134.227 125.509 134.715C125.291 133.907 124.902 133.043 124.22 132.13C124.22 132.096 124.235 132.062 124.269 132.021C124.782 131.457 125.381 130.258 125.449 129.931C125.486 129.751 124.433 128.98 124.332 129.191C124.231 129.405 122.905 131.374 122.193 131.096C121.481 130.818 122.189 128.428 122.26 128.255C122.332 128.082 120.807 127.582 120.724 127.845C120.642 128.108 120.088 130.563 119.226 130.698C118.51 130.807 117.312 128.293 117.244 128.101C117.128 127.77 115.626 128.503 115.768 128.762C115.907 129.277 116.128 129.766 116.337 130.258C116.487 130.611 116.678 130.983 116.753 131.363C116.364 131.566 116.015 131.822 115.659 132.122C115.614 132.16 115.566 132.201 115.521 132.243C115.139 132.585 114.816 132.979 114.543 133.404C113.752 133.287 112.913 133.253 112.01 133.366C111.857 132.227 111.613 131.029 111.216 129.826C111.119 129.529 107.706 130.525 107.777 130.901C108.058 132.333 108.238 133.618 108.354 134.764C105.645 136.519 103.84 139.271 103.802 139.372C103.757 139.507 105.012 140.447 105.125 140.312C105.196 140.229 106.552 138.372 108.508 136.918C108.582 138.692 108.508 140.041 108.474 141.052C108.328 141.157 108.182 141.266 108.043 141.383C106.93 142.296 106.207 143.536 105.773 144.882C104.885 144.739 104.019 144.513 103.173 144.25C102.835 144.145 102.311 145.945 102.498 145.998C103.356 146.238 104.36 146.475 105.368 146.652C105.169 148.057 105.222 149.482 105.443 150.703C104.686 150.91 103.896 151.049 103.079 151.105C102.824 151.124 103.169 152.924 103.499 152.898C104.274 152.834 105.102 152.695 105.937 152.5C107.155 155.837 109.748 158.577 113.168 160.907C115.165 162.268 115.895 164.027 117.769 165.515C119.091 166.567 120.717 166.905 121.541 166.92C122.279 167.044 123.235 167.007 124.07 166.774C127.989 165.778 128.937 160.817 129.191 157.6C129.439 154.514 130.439 151.094 130.817 148.009C130.933 147.054 130.907 146.069 130.742 145.096C132.335 145.186 133.915 145.182 134.605 145.073C134.882 145.028 135.092 143.303 134.534 143.393L134.541 143.405ZM117.634 138.707C117.578 138.654 117.465 137.579 117.682 136.504C118.199 137.004 118.398 137.594 118.267 138.173C118.241 138.286 118.196 138.402 118.139 138.515C117.802 138.662 117.682 138.756 117.634 138.711V138.707ZM119.488 134.306C120.586 134.125 121.2 134.712 121.541 135.445C120.623 135.358 119.687 135.027 118.686 134.644C118.911 134.479 119.173 134.355 119.488 134.302V134.306ZM112.797 135.204C113.123 135.197 113.427 135.204 113.722 135.219C113.64 135.497 113.565 135.775 113.513 136.061C113.31 137.102 113.254 138.192 113.359 139.323C113.078 139.349 112.797 139.383 112.516 139.428C112.393 138.481 112.303 137.049 112.194 135.257C112.396 135.227 112.599 135.212 112.801 135.208L112.797 135.204Z" fill="#FAFAFA"/>
<path d="M126.236 25.0141C127.425 24.8866 128.367 24.3731 128.996 23.3723C129.95 21.9443 129.753 20.6249 128.8 19.373C128.374 17.8288 127.461 16.9929 126.163 16.7343C125.959 16.1871 125.639 15.726 125.093 15.4262C124.835 14.0656 124.158 13.4509 123.373 13.0161C123.598 11.9404 122.58 11.1158 120.514 10.5048C120.237 9.93882 119.79 9.63897 119.12 9.6877C117.342 8.17343 115.748 7.83235 114.293 8.37958C113.806 8.27838 113.438 8.44329 113.151 8.78812C112.649 7.81359 111.663 7.66366 109.917 8.78812C109.364 8.51825 108.829 8.43954 108.327 8.78812C108.109 8.49951 107.651 8.45828 106.836 8.78812C106.079 8.71691 105.516 8.9268 105.094 9.35035C104.664 9.67644 104.133 9.9913 103.402 10.2987C102.838 10.0925 102.373 10.5048 101.983 11.4231C100.07 11.3332 98.8151 12.4501 98.0294 14.4217C97.5783 14.5491 97.2182 14.9127 97.0618 15.831C96.7926 16.0634 96.5998 16.3407 96.6871 16.7793C96.1233 17.1241 95.8759 17.4764 96.116 17.855C95.232 19.5829 95.6613 20.8123 96.3888 21.9293C95.7668 22.6564 96.7816 23.661 98.5786 24.8004C100.012 25.3626 101.427 25.595 102.831 25.595C103.351 26.9556 104.759 27.6753 106.461 28.185C108.109 28.6348 109.644 28.4849 111.088 27.9039C111.481 30.2877 112.602 31.787 114.944 31.7983C116.01 33.8898 118.069 34.9692 120.168 36L122.26 35.7976C121.605 35.2878 121.212 34.6844 121.088 33.976C117.24 28.5523 120.579 26.2697 126.236 25.0066V25.0141Z" fill="#ECF1E8"/>
<path d="M143.236 210.085C142.371 205.969 140.078 201.704 136.766 199.065C133.207 196.231 127.636 195.724 125.096 200.208C123.362 203.267 124.838 207.679 127.43 209.013C127.719 209.16 128.423 209.299 128.611 209.592C128.794 209.882 128.599 211.002 128.607 212.163C128.386 212.362 128.146 212.557 127.884 212.76C127.037 213.426 125.977 214.17 124.688 215.485C121.489 218.751 121.223 224.964 121.223 228.963C121.223 230.763 121.5 234.224 121.803 237.84C122.103 237.64 122.403 237.434 122.699 237.219C122.519 234.611 122.377 231.841 122.377 229.068C122.377 221.893 123.534 218.289 125.527 216.609C126.202 216.038 127.341 215.493 128.461 215.342C128.723 215.305 128.985 215.294 129.24 215.305C129.468 215.925 129.652 216.342 129.573 216.53C129.427 216.883 127.048 218.214 126.764 221.521C126.558 223.904 128.438 226.768 130.487 228.019C132.859 229.47 136.01 229.256 138.37 227.895C143.551 224.904 144.323 215.245 143.236 210.092V210.085Z" fill="#FAFAFA"/>
<path d="M98.5309 221.423C97.2421 220.104 96.1856 219.36 95.3352 218.698C94.998 218.435 94.6946 218.184 94.4211 217.917C94.4061 216.872 94.2525 215.902 94.4173 215.639C94.5934 215.357 95.2753 215.226 95.5525 215.083C97.2871 214.192 98.5009 211.873 98.5234 209.551C98.5346 208.525 98.3136 207.499 97.8003 206.597C95.3502 202.275 89.9816 202.767 86.5499 205.496C83.3543 208.04 81.1476 212.152 80.3122 216.117C79.267 221.085 80.0087 230.391 85.0027 233.277C87.2767 234.592 90.315 234.795 92.6003 233.397C94.5747 232.191 96.3842 229.428 96.1894 227.136C95.9159 223.945 93.6194 222.663 93.4807 222.325C93.4133 222.156 93.5594 221.795 93.7617 221.262C94.0839 221.228 94.4173 221.235 94.7545 221.28C95.8747 221.431 97.0098 221.976 97.6879 222.547C99.6773 224.227 100.839 227.835 100.839 235.006C100.839 239.162 100.52 241.624 100.232 243.657C100.498 243.796 100.767 243.924 101.045 244.056C101.446 240.88 101.993 237.437 101.993 234.901C101.993 230.898 101.727 224.685 98.5271 221.423H98.5309Z" fill="#FAFAFA"/>
</svg>
