<svg width="33" height="33" viewBox="0 0 33 33" fill="none" xmlns="http://www.w3.org/2000/svg">
<path d="M16.2015 32.8059C25.1493 32.8059 32.403 25.5523 32.403 16.6044C32.403 7.6566 25.1493 0.402954 16.2015 0.402954C7.25365 0.402954 0 7.6566 0 16.6044C0 25.5523 7.25365 32.8059 16.2015 32.8059Z" fill="#ECF1E8"/>
<path d="M25.2384 13.5891C24.7921 13.0018 23.6115 13.9867 23.1003 14.0438C22.5912 14.1009 21.5059 13.8052 20.3537 14.0703C19.457 14.2763 18.816 14.837 18.3211 14.89C17.8261 14.943 15.9882 13.6931 12.8338 14.4822C9.67943 15.2693 8.32842 17.2982 8.14382 18.4972C8.12962 18.5971 8.12354 18.697 8.12354 18.7949C8.08702 18.801 8.05051 18.8071 8.01399 18.8153C7.99371 19.0457 7.99574 19.2414 8.01602 19.4066C8.07485 19.3862 8.13368 19.3638 8.19251 19.3434C8.35073 19.9714 8.74224 20.522 9.09927 20.7789C9.52526 21.0848 11.3185 21.7821 12.9028 21.1398C13.7487 20.7972 13.7 19.8919 13.8319 19.741C13.9637 19.5901 14.5662 19.9857 15.7164 19.637C16.8646 19.2883 17.9356 18.332 18.6132 18.1322C19.2907 17.9323 20.735 17.7733 21.7554 17.4328C23.0841 16.9903 26.0255 14.6311 25.2364 13.5932L25.2384 13.5891Z" fill="#91AD70"/>
</svg>
