<svg width="14" height="17" viewBox="0 0 14 17" fill="none" xmlns="http://www.w3.org/2000/svg">
<path d="M13.6923 3.4327C13.6923 2.0959 12.6225 1 11.3124 1H3.37995C2.07213 1 1 2.09354 1 3.4327V13.5673C1 14.9041 2.06982 16 3.37995 16H11.3124C12.6202 16 13.6923 14.9065 13.6923 13.5673V3.4327ZM5.36479 1.81009H9.32983V2.82333C9.32983 3.26971 8.97399 3.63342 8.53728 3.63342H6.15734C5.72063 3.63342 5.36479 3.26971 5.36479 2.82333V1.81009ZM12.8998 13.5649C12.8998 14.4577 12.1858 15.1875 11.3124 15.1875H3.37995C2.50653 15.1875 1.79255 14.4577 1.79255 13.5649V3.43033C1.79255 2.53756 2.50653 1.80773 3.37995 1.80773H4.56993V2.82096C4.56993 3.71374 5.28392 4.44357 6.15734 4.44357H8.53728C9.4107 4.44357 10.1247 3.71374 10.1247 2.82096V1.80773H11.3147C12.1881 1.80773 12.9021 2.53756 12.9021 3.43033V13.5649H12.8998Z" fill="#7BA040" stroke="#7BA040" stroke-width="0.5" stroke-miterlimit="10"/>
<path d="M4.67291 8.25696H6.45627V6.45111H8.41345V8.25696H10.1821V10.2553H8.41345V12.0761H6.45627V10.2553H4.67291V8.25696Z" fill="#7BA040" stroke="#7BA040" stroke-width="0.5"/>
</svg>
