<svg width="33" height="34" viewBox="0 0 33 34" fill="none" xmlns="http://www.w3.org/2000/svg">
<path d="M16.2015 33.2089C25.1493 33.2089 32.403 25.9552 32.403 17.0074C32.403 8.05956 25.1493 0.805908 16.2015 0.805908C7.25365 0.805908 0 8.05956 0 17.0074C0 25.9552 7.25365 33.2089 16.2015 33.2089Z" fill="#ECF1E8"/>
<path d="M23.1758 10.0579C22.8835 9.2276 22.2468 8.67668 21.381 8.5064C20.4022 8.31274 19.9283 8.56984 19.5463 8.77574C19.3282 8.89482 19.1676 8.95715 18.9462 8.94713C17.8988 8.89928 17.0318 8.62771 16.3697 8.13912C16.3088 8.0946 16.2501 8.04786 16.1937 8C15.784 8.31386 15.35 8.59766 14.9381 8.9271C15.6932 9.61603 16.6963 9.98664 17.3872 10.2426C17.6674 10.345 17.8877 10.4274 18.0184 10.5019C18.3206 10.6745 18.5587 10.8114 18.5808 10.9638C18.6572 11.4836 18.015 12.5053 16.972 13.143C16.3321 13.5337 15.7541 13.5381 15.2448 13.5415C14.8916 13.5437 14.5572 13.5448 14.2527 13.6772C14.0656 13.7574 13.9383 13.8386 13.8441 13.8976C13.8176 13.9154 13.7866 13.9354 13.76 13.9488C13.7489 13.9299 13.7345 13.9087 13.7257 13.8943C13.6017 13.6995 13.3935 13.3734 12.9451 13.2487C12.2785 13.064 10.5491 12.8959 8.89932 15.3333C7.14438 17.9243 8.44979 19.675 8.72881 19.9989C9.26138 20.6166 10.2833 20.8893 10.8691 20.749C11.2223 20.6644 11.488 20.7245 11.798 20.7935C11.9707 20.8325 12.1512 20.8726 12.3627 20.8926C12.8355 20.9371 13.3105 20.9215 13.7788 20.8447C14.2527 20.7668 14.6867 20.5865 15.1363 20.4218C15.2802 20.3695 15.4662 20.3261 15.567 20.443C15.629 20.5131 15.6301 20.6221 15.5958 20.709C15.5603 20.7969 15.4961 20.8681 15.4319 20.9371C15.1429 21.2532 14.7941 21.5548 14.5683 21.9343C14.2461 22.4752 14.2605 23.1875 14.5583 23.7351C14.9093 24.3817 15.6179 24.552 16.2878 24.6578C16.8801 24.7513 17.6629 24.9805 17.7781 25.6706C18.0715 25.6372 18.3771 25.6617 18.6749 25.7852C18.8222 25.8464 18.9384 25.9199 19.0315 26C19.0016 25.507 18.9816 24.9839 18.6915 24.5665C18.2863 23.9855 17.6962 23.6238 16.9975 23.5314C16.7008 23.4925 16.3963 23.478 16.1228 23.3567C15.8161 23.2209 15.5991 22.9594 15.7463 22.6121C15.8482 22.3695 16.0785 22.1937 16.2479 22.0011C16.4428 21.7785 16.6554 21.5715 16.8336 21.3322C17.5888 20.3161 16.6454 19.0518 15.5028 19.0874C15.0222 19.103 14.5218 19.2332 14.0578 19.36C13.8231 19.4246 13.5795 19.4891 13.3381 19.5314C12.7004 19.6405 12.2221 19.6349 11.7858 19.5159C11.6984 19.4914 11.5965 19.3834 11.4791 19.2588C11.3773 19.1497 11.261 19.0262 11.1126 18.916C11.0639 18.8792 11.0152 18.8459 10.9665 18.8147C10.6731 18.6177 10.4184 18.4474 10.6078 17.5415C10.7362 16.9282 11.2555 16.1825 11.8157 15.8052C12.1667 15.5693 12.4092 15.5214 12.624 15.4791C12.7314 15.458 12.831 15.438 12.9351 15.3979C13.0171 15.3656 13.0813 15.3645 13.1001 15.3712C13.1012 15.3957 13.099 15.4446 13.0979 15.4725C13.0846 15.8097 13.058 16.512 13.8131 17.2209C14.2704 17.6505 15.4695 18.3517 17.0628 18.2526C18.6185 18.1569 20.0512 17.3322 21.3245 15.8019C23.0285 13.7529 23.7205 11.606 23.1769 10.0601L23.1758 10.0579Z" fill="#91AD70"/>
</svg>
