<svg width="11" height="11" viewBox="0 0 11 11" fill="none" xmlns="http://www.w3.org/2000/svg">
<path d="M1.30009 10H9.7001C9.865 10 10 9.865 10 9.70011V4.90018C10 4.8132 9.96104 4.72912 9.89489 4.67222L5.69498 1.07203C5.58409 0.97599 5.41611 0.97599 5.30502 1.07203L1.10492 4.67203C1.03896 4.72892 1 4.81301 1 4.89998V9.69992C1 9.86481 1.135 9.99981 1.30009 9.99981V10ZM1.59999 5.03807L5.50019 1.69611L9.40021 5.03807V9.40003H1.59999V5.03807Z" fill="#F596AA" stroke="#F596AA" stroke-width="0.25"/>
<path d="M4 5.96312H4.97111V5H6.03688V5.96312H7V7.02889H6.03688V8H4.97111V7.02889H4V5.96312Z" fill="#F596AA" stroke="#F596AA" stroke-width="0.25"/>
</svg>
