<svg width="7" height="12" viewBox="0 0 7 12" fill="none" xmlns="http://www.w3.org/2000/svg">
<path d="M2.57655 6.25002L1.2424 5.475L2.57655 6.25002ZM2.57655 6.25002L1.2424 7.02503L2.57655 6.25002ZM0.685471 10.2964V11V11.075H0.610471H0.285645H0.210646V11L0.210646 8.88999C0.210646 8.88997 0.210646 8.88996 0.210646 8.88994C0.210434 8.50807 0.305844 8.13298 0.487219 7.80451L0.48723 7.80449C0.668627 7.47622 0.929427 7.20657 1.24235 7.02506L0.685471 10.2964ZM0.685471 10.2964H5.45358V11V11.075H5.52858H5.85341H5.92841V11V8.88999V8.88994H5.85341C5.85362 8.52048 5.7613 8.15767 5.58618 7.84076M0.685471 10.2964L4.8967 7.02506L4.85903 7.08991M5.58618 7.84076L5.65184 7.80451C5.65183 7.8045 5.65183 7.8045 5.65183 7.80449L5.58618 7.84076ZM5.58618 7.84076C5.41106 7.52362 5.15972 7.26431 4.85903 7.08991M4.85903 7.08991L4.89666 7.02503L3.56251 6.25002M4.85903 7.08991L3.48785 6.29339L3.56251 6.25002M3.56251 6.25002L3.48785 6.20665M3.56251 6.25002L4.89662 5.47502M3.48785 6.20665L4.89662 5.47502M3.48785 6.20665L4.85903 5.41012L4.89662 5.47502M3.48785 6.20665L4.89662 5.47502M5.9282 3.53509H5.92837L5.92841 3.61005C5.92863 3.99194 5.83322 4.36704 5.65184 4.69552C5.47045 5.02402 5.20965 5.29368 4.8967 5.47498L5.9282 3.53509ZM5.9282 3.53509V1V0.925H5.8532H5.52837H5.45337V1V2.15822H0.685471V1V0.925H0.610471H0.285645H0.210646V1V3.61005V3.61009H0.285645L5.9282 3.53509ZM0.487219 4.69552C0.66863 5.02406 0.929444 5.29347 1.24235 5.47498L0.487219 4.69552ZM0.685679 3.60932L0.685471 3.58923V2.66024H5.45358V3.60968C5.45277 3.68686 5.44694 3.76387 5.43609 3.84007H0.703172C0.692312 3.76375 0.686478 3.68661 0.685679 3.60932ZM5.45338 8.89062L5.45358 8.91394V9.79459H0.685471V8.89029C0.68632 8.79785 0.694522 8.70557 0.709962 8.61453H5.42888C5.44434 8.70562 5.45254 8.79789 5.45338 8.89062ZM4.66784 7.46479L4.68176 7.47287C4.92959 7.62089 5.13328 7.84295 5.26884 8.11274H0.870227C1.00831 7.83799 1.21721 7.61272 1.47129 7.46475L3.06953 6.5364L4.66784 7.46479ZM4.66784 5.03524L3.06942 5.96358L1.471 5.03524L1.47099 5.03524C1.20225 4.87923 0.984488 4.63721 0.846809 4.34209H5.29204C5.15435 4.63726 4.93658 4.87943 4.66789 5.03522L4.66784 5.03524Z" fill="#BABCB7" stroke="#BABCB7" stroke-width="0.15"/>
</svg>
