<svg width="7" height="12" viewBox="0 0 7 12" fill="none" xmlns="http://www.w3.org/2000/svg">
<path d="M3.2909 6.25002L1.95675 5.475L3.2909 6.25002ZM3.2909 6.25002L1.95675 7.02503L3.2909 6.25002ZM1.39983 10.2964V11V11.075H1.32483H1H0.925001V11L0.925001 8.88999C0.925001 8.88997 0.925001 8.88996 0.925001 8.88994C0.92479 8.50807 1.0202 8.13298 1.20157 7.80451L1.20159 7.80449C1.38298 7.47622 1.64378 7.20657 1.95671 7.02506L1.39983 10.2964ZM1.39983 10.2964H6.16794V11V11.075H6.24294H6.56776H6.64276V11V8.88999V8.88994H6.56776C6.56798 8.52048 6.47565 8.15767 6.30054 7.84076M1.39983 10.2964L5.61106 7.02506L5.57339 7.08991M6.30054 7.84076L6.36619 7.80451C6.36619 7.8045 6.36618 7.8045 6.36618 7.80449L6.30054 7.84076ZM6.30054 7.84076C6.12542 7.52362 5.87407 7.26431 5.57339 7.08991M5.57339 7.08991L5.61102 7.02503L4.27687 6.25002M5.57339 7.08991L4.20221 6.29339L4.27687 6.25002M4.27687 6.25002L4.20221 6.20665M4.27687 6.25002L5.61098 5.47502M4.20221 6.20665L5.61098 5.47502M4.20221 6.20665L5.57339 5.41012L5.61098 5.47502M4.20221 6.20665L5.61098 5.47502M6.64255 3.53509H6.64272L6.64276 3.61005C6.64298 3.99194 6.54757 4.36704 6.36619 4.69552C6.1848 5.02402 5.924 5.29368 5.61106 5.47498L6.64255 3.53509ZM6.64255 3.53509V1V0.925H6.56755H6.24273H6.16773V1V2.15822H1.39983V1V0.925H1.32483H1H0.925001V1V3.61005V3.61009H1L6.64255 3.53509ZM1.20157 4.69552C1.38299 5.02406 1.6438 5.29347 1.95671 5.47498L1.20157 4.69552ZM1.40003 3.60932L1.39983 3.58923V2.66024H6.16794V3.60968C6.16713 3.68686 6.16129 3.76387 6.15045 3.84007H1.41753C1.40667 3.76375 1.40083 3.68661 1.40003 3.60932ZM6.16773 8.89062L6.16794 8.91394V9.79459H1.39983V8.89029C1.40068 8.79785 1.40888 8.70557 1.42432 8.61453H6.14324C6.1587 8.70562 6.1669 8.79789 6.16773 8.89062ZM5.3822 7.46479L5.39611 7.47287C5.64395 7.62089 5.84764 7.84295 5.98319 8.11274H1.58458C1.72267 7.83799 1.93156 7.61272 2.18564 7.46475L3.78388 6.5364L5.3822 7.46479ZM5.3822 5.03524L3.78378 5.96358L2.18536 5.03524L2.18534 5.03524C1.91661 4.87923 1.69884 4.63721 1.56116 4.34209H6.00639C5.86871 4.63726 5.65094 4.87943 5.38225 5.03522L5.3822 5.03524Z" fill="#7BA040" stroke="#7BA040" stroke-width="0.15"/>
</svg>
