<svg width="13" height="9" viewBox="0 0 13 9" fill="none" xmlns="http://www.w3.org/2000/svg">
<path d="M0 0.642783C0 0.287641 0.287923 0 0.642799 0H12.2148C12.57 0 12.8576 0.287641 12.8576 0.642783C12.8576 0.997925 12.5697 1.28557 12.2148 1.28557H0.642799C0.287648 1.28557 0 0.997925 0 0.642783Z" fill="#7BA040"/>
<path d="M1.92871 4.49984C1.92871 4.1447 2.21636 3.85706 2.57151 3.85706H10.2862C10.6413 3.85706 10.929 4.14497 10.929 4.49984C10.929 4.85471 10.6411 5.14262 10.2862 5.14262H2.57151C2.21636 5.14262 1.92871 4.85471 1.92871 4.49984Z" fill="#7BA040"/>
<path d="M4.50022 7.71436C4.14507 7.71436 3.85742 8.00227 3.85742 8.35714C3.85742 8.712 4.14535 8.99992 4.50022 8.99992H8.35756C8.71271 8.99992 9.00036 8.712 9.00036 8.35714C9.00036 8.00227 8.71244 7.71436 8.35756 7.71436H4.50022Z" fill="#7BA040"/>
</svg>
