<svg width="14" height="12" viewBox="0 0 14 12" fill="none" xmlns="http://www.w3.org/2000/svg">
<path d="M10.968 7.99988V7.33332H7.06801V4.66649H2.51786C2.00083 4.66649 1.5047 4.87734 1.13894 5.2522C0.773177 5.62705 0.567871 6.13619 0.567871 6.66675V8.00017H10.968V7.99988ZM1.21805 7.33332V6.66647C1.21833 6.31304 1.35539 5.97419 1.59914 5.72419C1.84288 5.47419 2.17327 5.33362 2.51786 5.33334H6.41783V7.33332H1.21805ZM13.5679 5.9999C13.5679 7.28703 13.1645 8.54016 12.4168 9.57415C11.6691 10.6079 10.6173 11.3678 9.41635 11.7416C8.21544 12.1153 6.929 12.083 5.74759 11.6493C4.5659 11.2156 3.55163 10.4036 2.85437 9.33358H3.66501C4.3592 10.2233 5.31302 10.8616 6.38691 11.1547C7.46051 11.4478 8.59763 11.3807 9.63141 10.963C10.6652 10.5453 11.5413 9.79872 12.1313 8.8333C12.7213 7.8676 12.9943 6.73361 12.9104 5.59734C12.8263 4.46106 12.3898 3.38222 11.6644 2.5188C10.939 1.65566 9.96346 1.0531 8.8801 0.799956C7.79675 0.546816 6.66297 0.656244 5.64452 1.11224C4.62635 1.56823 3.77699 2.34651 3.22152 3.33364H2.48331C3.06915 2.12137 4.03745 1.14795 5.23084 0.571673C6.42396 -0.00489252 7.77223 -0.150605 9.05644 0.158534C10.3406 0.467388 11.4853 1.21281 12.3043 2.27337C13.1233 3.33393 13.5684 4.64735 13.5676 6.00019L13.5679 5.9999ZM9.6679 4.66649C9.84033 4.66649 10.0055 4.73677 10.1275 4.86192C10.2496 4.98706 10.3178 5.15648 10.3178 5.33334C10.3178 5.51019 10.2493 5.67962 10.1275 5.80476C10.0055 5.9299 9.84033 6.00019 9.6679 6.00019C9.49546 6.00019 9.33027 5.9299 9.20826 5.80476C9.08625 5.67962 9.018 5.51019 9.018 5.33334C9.018 5.15648 9.08652 4.98706 9.20854 4.8622C9.33055 4.73734 9.49546 4.66677 9.6679 4.66677M9.6679 4.00021C9.32303 4.00021 8.99237 4.14078 8.74862 4.39078C8.50487 4.64077 8.36782 4.97991 8.36782 5.33362C8.36782 5.68734 8.50487 6.02647 8.74862 6.27647C8.99237 6.52647 9.32303 6.66704 9.6679 6.66704C10.0128 6.66704 10.3434 6.52675 10.5872 6.27647C10.8309 6.02647 10.968 5.68734 10.968 5.33362C10.968 4.97991 10.8309 4.64077 10.5872 4.39078C10.3434 4.14078 10.0128 4.00021 9.6679 4.00021Z" fill="#BABCB7"/>
</svg>
